<svg width="820" height="400" viewBox="0 0 820 400" fill="none" xmlns="http://www.w3.org/2000/svg">
<g clip-path="url(#clip0_150_12)">
<path d="M820 0V138.06C788.71 137.5 757.84 123.88 736.19 98L654.17 0H820Z" fill="#E6E1FF"/>
<path d="M556.79 100.19C535.84 117.73 510.35 126.29 485.02 126.29C453.03 126.29 421.27 112.65 399.14 86.2L327 0H595.96C600.66 36.6 587.19 74.75 556.79 100.19Z" fill="#E6E1FF"/>
<mask id="mask0_150_12" style="mask-type:luminance" maskUnits="userSpaceOnUse" x="556" y="0" width="99" height="73">
<path d="M654.016 0H556V72.936H654.016V0Z" fill="white"/>
</mask>
<g mask="url(#mask0_150_12)">
<path d="M605.365 63.432C583.799 63.432 566.254 45.887 566.254 24.321C566.254 2.75496 583.799 -14.79 605.365 -14.79C626.931 -14.79 644.477 2.75496 644.477 24.321C644.477 45.887 626.932 63.432 605.365 63.432ZM605.365 9.25396C597.057 9.25396 590.298 16.013 590.298 24.321C590.298 32.629 597.057 39.388 605.365 39.388C613.673 39.388 620.432 32.629 620.432 24.321C620.433 16.013 613.674 9.25396 605.365 9.25396Z" fill="#A8A2FC"/>
</g>
<mask id="mask1_150_12" style="mask-type:luminance" maskUnits="userSpaceOnUse" x="378" y="0" width="125" height="90">
<path d="M502.175 0H378.348V89.029H502.175V0Z" fill="white"/>
</mask>
<g mask="url(#mask1_150_12)">
<path d="M465.929 82.6096C459.969 82.6096 454.054 80.0686 449.93 75.1416L374.133 -16.0634C366.743 -24.8934 367.91 -38.0424 376.74 -45.4324C385.571 -52.8234 398.72 -51.6554 406.11 -42.8254L481.907 48.3796C489.297 57.2096 488.13 70.3586 479.3 77.7486C475.397 81.0146 470.649 82.6096 465.929 82.6096Z" fill="#CEC7FF"/>
<path d="M475.006 54.137C469.047 54.137 463.131 51.596 459.007 46.669L383.21 -44.536C375.82 -53.366 376.987 -66.515 385.817 -73.905C394.648 -81.296 407.797 -80.128 415.186 -71.298L490.983 19.907C498.373 28.737 497.206 41.886 488.376 49.276C484.473 52.542 479.726 54.137 475.006 54.137Z" fill="#82E394"/>
</g>
<mask id="mask2_150_12" style="mask-type:luminance" maskUnits="userSpaceOnUse" x="731" y="85" width="89" height="145">
<path d="M820 85.332H731.876V229.623H820V85.332Z" fill="white"/>
</mask>
<g mask="url(#mask2_150_12)">
<path d="M847.802 242.58C841.842 242.58 835.927 240.039 831.803 235.112L741.489 127.427C734.099 118.597 735.266 105.448 744.096 98.0578C752.927 90.6668 766.076 91.8349 773.465 100.665L863.779 208.35C871.169 217.18 870.002 230.329 861.172 237.719C857.269 240.985 852.521 242.58 847.802 242.58Z" fill="#8585F9"/>
<path d="M886.511 256.424C880.552 256.424 874.636 253.883 870.512 248.956L780.198 141.271C772.808 132.441 773.975 119.292 782.805 111.902C791.636 104.511 804.785 105.679 812.174 114.509L902.488 222.194C909.878 231.024 908.711 244.173 899.881 251.563C895.978 254.83 891.231 256.424 886.511 256.424Z" fill="#82E394"/>
</g>
<mask id="mask3_150_12" style="mask-type:luminance" maskUnits="userSpaceOnUse" x="475" y="48" width="346" height="285">
<path d="M820.053 48H475V332.654H820.053V48Z" fill="white"/>
</mask>
<g mask="url(#mask3_150_12)">
<path d="M740.117 216.909C712.348 207.629 687.581 190.873 669.088 168.174C668.96 168.016 668.831 167.858 668.703 167.7L592.823 73.9523C584.519 63.6923 571.922 57.8703 558.726 58.1913L544.095 58.5483L593.6 178.802C599.441 192.99 600.496 208.665 596.66 223.466L751.992 220.876L740.117 216.909Z" fill="#673EF9"/>
<path d="M593.6 178.804L544.095 58.5498L525.3 59.0078L565.439 223.989L596.66 223.469C607.076 208.132 599.441 192.992 593.6 178.804Z" fill="#8585F9"/>
<path d="M513.445 259.261L510.294 258.372C508.632 257.903 507.484 256.387 507.484 254.66V235.385C507.484 233.419 508.963 231.767 510.917 231.551L513.446 231.271L513.445 259.261Z" fill="#8585F9"/>
<path d="M850.049 219.213L599.776 220.878C591.698 220.878 583.629 221.44 575.629 222.561L513.445 231.271V259.262L561.867 272.353L851.291 270.688L850.049 219.213Z" fill="#CEC7FF"/>
<path d="M561.867 272.352L701.031 309.976C708.344 311.953 715.887 312.955 723.463 312.955L852.271 311.29L851.292 270.688L561.867 272.352Z" fill="#A8A2FC"/>
<path d="M714.292 257.32C712.188 257.32 710.482 255.614 710.482 253.51V249.592C710.482 247.488 712.188 245.782 714.292 245.782C716.396 245.782 718.102 247.488 718.102 249.592V253.51C718.101 255.614 716.396 257.32 714.292 257.32Z" fill="white"/>
<path d="M725.401 257.142C723.297 257.142 721.591 255.436 721.591 253.332V249.414C721.591 247.31 723.297 245.604 725.401 245.604C727.505 245.604 729.211 247.31 729.211 249.414V253.332C729.211 255.436 727.505 257.142 725.401 257.142Z" fill="white"/>
<path d="M736.509 256.966C734.405 256.966 732.699 255.26 732.699 253.156V249.238C732.699 247.134 734.405 245.428 736.509 245.428C738.613 245.428 740.319 247.134 740.319 249.238V253.156C740.318 255.26 738.613 256.966 736.509 256.966Z" fill="white"/>
<path d="M747.618 256.789C745.514 256.789 743.808 255.083 743.808 252.979V249.061C743.808 246.957 745.514 245.251 747.618 245.251C749.722 245.251 751.428 246.957 751.428 249.061V252.979C751.428 255.083 749.722 256.789 747.618 256.789Z" fill="white"/>
<path d="M758.726 256.612C756.622 256.612 754.916 254.906 754.916 252.802V248.884C754.916 246.78 756.622 245.074 758.726 245.074C760.83 245.074 762.536 246.78 762.536 248.884V252.802C762.535 254.906 760.83 256.612 758.726 256.612Z" fill="white"/>
<path d="M769.834 256.435C767.73 256.435 766.024 254.729 766.024 252.625V248.707C766.024 246.603 767.73 244.897 769.834 244.897C771.938 244.897 773.644 246.603 773.644 248.707V252.625C773.644 254.729 771.938 256.435 769.834 256.435Z" fill="white"/>
<path d="M780.944 256.258C778.84 256.258 777.134 254.552 777.134 252.448V248.53C777.134 246.426 778.84 244.72 780.944 244.72C783.048 244.72 784.754 246.426 784.754 248.53V252.448C784.753 254.552 783.048 256.258 780.944 256.258Z" fill="white"/>
<path d="M792.051 256.081C789.947 256.081 788.241 254.375 788.241 252.271V248.353C788.241 246.249 789.947 244.543 792.051 244.543C794.155 244.543 795.861 246.249 795.861 248.353V252.271C795.861 254.375 794.155 256.081 792.051 256.081Z" fill="white"/>
<path d="M803.161 255.904C801.057 255.904 799.351 254.198 799.351 252.094V248.176C799.351 246.072 801.057 244.366 803.161 244.366C805.265 244.366 806.971 246.072 806.971 248.176V252.094C806.971 254.198 805.265 255.904 803.161 255.904Z" fill="white"/>
<path d="M814.268 255.726C812.164 255.726 810.458 254.02 810.458 251.916V247.998C810.458 245.894 812.164 244.188 814.268 244.188C816.372 244.188 818.078 245.894 818.078 247.998V251.916C818.078 254.02 816.372 255.726 814.268 255.726Z" fill="white"/>
<path d="M490.735 223.564C489.914 223.546 489.694 224.689 490.463 224.976L557.884 250.212L581.064 249.605L505.226 223.885L490.735 223.564Z" fill="#673EF9"/>
<path d="M669.969 244.909L551.334 225.338C549.334 225.008 547.312 224.82 545.285 224.775L505.226 223.886L581.064 249.606L669.805 247.283C671.254 247.244 671.399 245.145 669.969 244.909Z" fill="#8585F9"/>
<path d="M581.063 249.604L628.07 263.836C640.819 267.577 654.587 263.768 663.599 254.004L669.914 247.164L581.063 249.604Z" fill="#A8A2FC"/>
</g>
<mask id="mask4_150_12" style="mask-type:luminance" maskUnits="userSpaceOnUse" x="740" y="3" width="71" height="76">
<path d="M786.142 78.7507C785.421 78.7507 784.699 78.7187 783.975 78.6547C777.504 78.0797 771.525 74.9587 767.355 69.9767L745.744 44.1557C741.574 39.1737 739.554 32.7387 740.129 26.2677C740.704 19.7957 743.825 13.8177 748.807 9.64769C753.789 5.47769 760.224 3.45769 766.695 4.03269C773.167 4.60669 779.145 7.72869 783.315 12.7107L804.926 38.5317C809.096 43.5137 811.116 49.9487 810.541 56.4197C809.967 62.8907 806.845 68.8697 801.863 73.0387C797.438 76.7427 791.867 78.7507 786.142 78.7507Z" fill="white"/>
</mask>
<g mask="url(#mask4_150_12)">
<path d="M741.864 75.1763C742.422 75.1763 742.876 74.7233 742.876 74.1643C742.876 73.6054 742.422 73.1523 741.864 73.1523C741.305 73.1523 740.852 73.6054 740.852 74.1643C740.852 74.7233 741.305 75.1763 741.864 75.1763Z" fill="#28215A"/>
<path d="M754.034 75.1763C754.592 75.1763 755.046 74.7233 755.046 74.1643C755.046 73.6054 754.592 73.1523 754.034 73.1523C753.475 73.1523 753.021 73.6054 753.021 74.1643C753.021 74.7233 753.475 75.1763 754.034 75.1763Z" fill="#28215A"/>
<path d="M766.202 75.1763C766.761 75.1763 767.214 74.7233 767.214 74.1643C767.214 73.6054 766.761 73.1523 766.202 73.1523C765.644 73.1523 765.19 73.6054 765.19 74.1643C765.19 74.7233 765.644 75.1763 766.202 75.1763Z" fill="#28215A"/>
<path d="M778.371 75.1763C778.93 75.1763 779.383 74.7233 779.383 74.1643C779.383 73.6054 778.93 73.1523 778.371 73.1523C777.812 73.1523 777.359 73.6054 777.359 74.1643C777.359 74.7233 777.812 75.1763 778.371 75.1763Z" fill="#28215A"/>
<path d="M790.54 75.1763C791.099 75.1763 791.552 74.7233 791.552 74.1643C791.552 73.6054 791.099 73.1523 790.54 73.1523C789.981 73.1523 789.528 73.6054 789.528 74.1643C789.528 74.7233 789.981 75.1763 790.54 75.1763Z" fill="#28215A"/>
<path d="M802.71 75.1763C803.269 75.1763 803.722 74.7233 803.722 74.1643C803.722 73.6054 803.269 73.1523 802.71 73.1523C802.151 73.1523 801.698 73.6054 801.698 74.1643C801.698 74.7233 802.151 75.1763 802.71 75.1763Z" fill="#28215A"/>
<path d="M748.973 68.4993C748.973 69.0583 748.52 69.5113 747.961 69.5113C747.402 69.5113 746.949 69.0583 746.949 68.4993C746.949 67.9403 747.402 67.4873 747.961 67.4873C748.52 67.4873 748.973 67.9403 748.973 68.4993Z" fill="#28215A"/>
<path d="M760.131 69.5113C760.69 69.5113 761.143 69.0582 761.143 68.4993C761.143 67.9404 760.69 67.4873 760.131 67.4873C759.572 67.4873 759.119 67.9404 759.119 68.4993C759.119 69.0582 759.572 69.5113 760.131 69.5113Z" fill="#28215A"/>
<path d="M772.3 69.5113C772.859 69.5113 773.312 69.0582 773.312 68.4993C773.312 67.9404 772.859 67.4873 772.3 67.4873C771.741 67.4873 771.288 67.9404 771.288 68.4993C771.288 69.0582 771.741 69.5113 772.3 69.5113Z" fill="#28215A"/>
<path d="M784.469 69.5113C785.028 69.5113 785.481 69.0582 785.481 68.4993C785.481 67.9404 785.028 67.4873 784.469 67.4873C783.91 67.4873 783.457 67.9404 783.457 68.4993C783.457 69.0582 783.91 69.5113 784.469 69.5113Z" fill="#28215A"/>
<path d="M797.65 68.4993C797.65 69.0583 797.197 69.5113 796.638 69.5113C796.079 69.5113 795.626 69.0583 795.626 68.4993C795.626 67.9403 796.079 67.4873 796.638 67.4873C797.197 67.4873 797.65 67.9403 797.65 68.4993Z" fill="#28215A"/>
<path d="M808.808 69.5113C809.367 69.5113 809.82 69.0582 809.82 68.4993C809.82 67.9404 809.367 67.4873 808.808 67.4873C808.249 67.4873 807.796 67.9404 807.796 68.4993C807.796 69.0582 808.249 69.5113 808.808 69.5113Z" fill="#28215A"/>
<path d="M741.864 63.1812C742.422 63.1812 742.876 62.7281 742.876 62.1692C742.876 61.6103 742.422 61.1572 741.864 61.1572C741.305 61.1572 740.852 61.6103 740.852 62.1692C740.852 62.7281 741.305 63.1812 741.864 63.1812Z" fill="#28215A"/>
<path d="M754.034 63.1812C754.592 63.1812 755.046 62.7281 755.046 62.1692C755.046 61.6103 754.592 61.1572 754.034 61.1572C753.475 61.1572 753.021 61.6103 753.021 62.1692C753.021 62.7281 753.475 63.1812 754.034 63.1812Z" fill="#28215A"/>
<path d="M766.202 63.1812C766.761 63.1812 767.214 62.7281 767.214 62.1692C767.214 61.6103 766.761 61.1572 766.202 61.1572C765.644 61.1572 765.19 61.6103 765.19 62.1692C765.19 62.7281 765.644 63.1812 766.202 63.1812Z" fill="#28215A"/>
<path d="M778.371 63.1812C778.93 63.1812 779.383 62.7281 779.383 62.1692C779.383 61.6103 778.93 61.1572 778.371 61.1572C777.812 61.1572 777.359 61.6103 777.359 62.1692C777.359 62.7281 777.812 63.1812 778.371 63.1812Z" fill="#28215A"/>
<path d="M790.54 63.1812C791.099 63.1812 791.552 62.7281 791.552 62.1692C791.552 61.6103 791.099 61.1572 790.54 61.1572C789.981 61.1572 789.528 61.6103 789.528 62.1692C789.528 62.7281 789.981 63.1812 790.54 63.1812Z" fill="#28215A"/>
<path d="M802.71 63.1812C803.269 63.1812 803.722 62.7281 803.722 62.1692C803.722 61.6103 803.269 61.1572 802.71 61.1572C802.151 61.1572 801.698 61.6103 801.698 62.1692C801.698 62.7281 802.151 63.1812 802.71 63.1812Z" fill="#28215A"/>
<path d="M748.973 56.5042C748.973 57.0632 748.52 57.5162 747.961 57.5162C747.402 57.5162 746.949 57.0632 746.949 56.5042C746.949 55.9452 747.402 55.4922 747.961 55.4922C748.52 55.4932 748.973 55.9452 748.973 56.5042Z" fill="#28215A"/>
<path d="M760.131 57.5162C760.69 57.5162 761.143 57.0631 761.143 56.5042C761.143 55.9453 760.69 55.4922 760.131 55.4922C759.572 55.4922 759.119 55.9453 759.119 56.5042C759.119 57.0631 759.572 57.5162 760.131 57.5162Z" fill="#28215A"/>
<path d="M772.3 57.5162C772.859 57.5162 773.312 57.0631 773.312 56.5042C773.312 55.9453 772.859 55.4922 772.3 55.4922C771.741 55.4922 771.288 55.9453 771.288 56.5042C771.288 57.0631 771.741 57.5162 772.3 57.5162Z" fill="#28215A"/>
<path d="M784.469 57.5162C785.028 57.5162 785.481 57.0631 785.481 56.5042C785.481 55.9453 785.028 55.4922 784.469 55.4922C783.91 55.4922 783.457 55.9453 783.457 56.5042C783.457 57.0631 783.91 57.5162 784.469 57.5162Z" fill="#28215A"/>
<path d="M797.65 56.5042C797.65 57.0632 797.197 57.5162 796.638 57.5162C796.079 57.5162 795.626 57.0632 795.626 56.5042C795.626 55.9452 796.079 55.4922 796.638 55.4922C797.197 55.4932 797.65 55.9452 797.65 56.5042Z" fill="#28215A"/>
<path d="M808.808 57.5162C809.367 57.5162 809.82 57.0631 809.82 56.5042C809.82 55.9453 809.367 55.4922 808.808 55.4922C808.249 55.4922 807.796 55.9453 807.796 56.5042C807.796 57.0631 808.249 57.5162 808.808 57.5162Z" fill="#28215A"/>
<path d="M741.864 51.1861C742.422 51.1861 742.876 50.733 742.876 50.1741C742.876 49.6152 742.422 49.1621 741.864 49.1621C741.305 49.1621 740.852 49.6152 740.852 50.1741C740.852 50.733 741.305 51.1861 741.864 51.1861Z" fill="#28215A"/>
<path d="M754.034 51.1861C754.592 51.1861 755.046 50.733 755.046 50.1741C755.046 49.6152 754.592 49.1621 754.034 49.1621C753.475 49.1621 753.021 49.6152 753.021 50.1741C753.021 50.733 753.475 51.1861 754.034 51.1861Z" fill="#28215A"/>
<path d="M766.202 51.1861C766.761 51.1861 767.214 50.733 767.214 50.1741C767.214 49.6152 766.761 49.1621 766.202 49.1621C765.644 49.1621 765.19 49.6152 765.19 50.1741C765.19 50.733 765.644 51.1861 766.202 51.1861Z" fill="#28215A"/>
<path d="M778.371 51.1861C778.93 51.1861 779.383 50.733 779.383 50.1741C779.383 49.6152 778.93 49.1621 778.371 49.1621C777.812 49.1621 777.359 49.6152 777.359 50.1741C777.359 50.733 777.812 51.1861 778.371 51.1861Z" fill="#28215A"/>
<path d="M790.54 51.1861C791.099 51.1861 791.552 50.733 791.552 50.1741C791.552 49.6152 791.099 49.1621 790.54 49.1621C789.981 49.1621 789.528 49.6152 789.528 50.1741C789.528 50.733 789.981 51.1861 790.54 51.1861Z" fill="#28215A"/>
<path d="M802.71 51.1861C803.269 51.1861 803.722 50.733 803.722 50.1741C803.722 49.6152 803.269 49.1621 802.71 49.1621C802.151 49.1621 801.698 49.6152 801.698 50.1741C801.698 50.733 802.151 51.1861 802.71 51.1861Z" fill="#28215A"/>
<path d="M748.973 44.5081C748.973 45.0671 748.52 45.5201 747.961 45.5201C747.402 45.5201 746.949 45.0671 746.949 44.5081C746.949 43.9491 747.402 43.4961 747.961 43.4961C748.52 43.4971 748.973 43.9501 748.973 44.5081Z" fill="#28215A"/>
<path d="M760.131 45.5201C760.69 45.5201 761.143 45.067 761.143 44.5081C761.143 43.9492 760.69 43.4961 760.131 43.4961C759.572 43.4961 759.119 43.9492 759.119 44.5081C759.119 45.067 759.572 45.5201 760.131 45.5201Z" fill="#28215A"/>
<path d="M772.3 45.5201C772.859 45.5201 773.312 45.067 773.312 44.5081C773.312 43.9492 772.859 43.4961 772.3 43.4961C771.741 43.4961 771.288 43.9492 771.288 44.5081C771.288 45.067 771.741 45.5201 772.3 45.5201Z" fill="#28215A"/>
<path d="M784.469 45.5201C785.028 45.5201 785.481 45.067 785.481 44.5081C785.481 43.9492 785.028 43.4961 784.469 43.4961C783.91 43.4961 783.457 43.9492 783.457 44.5081C783.457 45.067 783.91 45.5201 784.469 45.5201Z" fill="#28215A"/>
<path d="M797.65 44.5081C797.65 45.0671 797.197 45.5201 796.638 45.5201C796.079 45.5201 795.626 45.0671 795.626 44.5081C795.626 43.9491 796.079 43.4961 796.638 43.4961C797.197 43.4971 797.65 43.9501 797.65 44.5081Z" fill="#28215A"/>
<path d="M808.808 45.5201C809.367 45.5201 809.82 45.067 809.82 44.5081C809.82 43.9492 809.367 43.4961 808.808 43.4961C808.249 43.4961 807.796 43.9492 807.796 44.5081C807.796 45.067 808.249 45.5201 808.808 45.5201Z" fill="#28215A"/>
<path d="M741.864 39.19C742.422 39.19 742.876 38.7369 742.876 38.178C742.876 37.6191 742.422 37.166 741.864 37.166C741.305 37.166 740.852 37.6191 740.852 38.178C740.852 38.7369 741.305 39.19 741.864 39.19Z" fill="#28215A"/>
<path d="M754.034 39.19C754.592 39.19 755.046 38.7369 755.046 38.178C755.046 37.6191 754.592 37.166 754.034 37.166C753.475 37.166 753.021 37.6191 753.021 38.178C753.021 38.7369 753.475 39.19 754.034 39.19Z" fill="#28215A"/>
<path d="M766.202 39.19C766.761 39.19 767.214 38.7369 767.214 38.178C767.214 37.6191 766.761 37.166 766.202 37.166C765.644 37.166 765.19 37.6191 765.19 38.178C765.19 38.7369 765.644 39.19 766.202 39.19Z" fill="#28215A"/>
<path d="M778.371 39.19C778.93 39.19 779.383 38.7369 779.383 38.178C779.383 37.6191 778.93 37.166 778.371 37.166C777.812 37.166 777.359 37.6191 777.359 38.178C777.359 38.7369 777.812 39.19 778.371 39.19Z" fill="#28215A"/>
<path d="M790.54 39.19C791.099 39.19 791.552 38.7369 791.552 38.178C791.552 37.6191 791.099 37.166 790.54 37.166C789.981 37.166 789.528 37.6191 789.528 38.178C789.528 38.7369 789.981 39.19 790.54 39.19Z" fill="#28215A"/>
<path d="M802.71 39.19C803.269 39.19 803.722 38.7369 803.722 38.178C803.722 37.6191 803.269 37.166 802.71 37.166C802.151 37.166 801.698 37.6191 801.698 38.178C801.698 38.7369 802.151 39.19 802.71 39.19Z" fill="#28215A"/>
<path d="M748.973 32.513C748.973 33.072 748.52 33.525 747.961 33.525C747.402 33.525 746.949 33.072 746.949 32.513C746.949 31.954 747.402 31.501 747.961 31.501C748.52 31.501 748.973 31.954 748.973 32.513Z" fill="#28215A"/>
<path d="M761.143 32.513C761.143 33.072 760.69 33.525 760.131 33.525C759.572 33.525 759.119 33.072 759.119 32.513C759.119 31.954 759.572 31.501 760.131 31.501C760.69 31.501 761.143 31.954 761.143 32.513Z" fill="#28215A"/>
<path d="M773.312 32.513C773.312 33.072 772.859 33.525 772.3 33.525C771.741 33.525 771.288 33.072 771.288 32.513C771.288 31.954 771.741 31.501 772.3 31.501C772.859 31.501 773.312 31.954 773.312 32.513Z" fill="#28215A"/>
<path d="M785.481 32.513C785.481 33.072 785.028 33.525 784.469 33.525C783.91 33.525 783.457 33.072 783.457 32.513C783.457 31.954 783.91 31.501 784.469 31.501C785.028 31.501 785.481 31.954 785.481 32.513Z" fill="#28215A"/>
<path d="M797.65 32.513C797.65 33.072 797.197 33.525 796.638 33.525C796.079 33.525 795.626 33.072 795.626 32.513C795.626 31.954 796.079 31.501 796.638 31.501C797.197 31.501 797.65 31.954 797.65 32.513Z" fill="#28215A"/>
<path d="M809.819 32.513C809.819 33.072 809.366 33.525 808.807 33.525C808.248 33.525 807.795 33.072 807.795 32.513C807.795 31.954 808.248 31.501 808.807 31.501C809.366 31.501 809.819 31.954 809.819 32.513Z" fill="#28215A"/>
<path d="M741.864 27.1939C742.422 27.1939 742.876 26.7408 742.876 26.1819C742.876 25.623 742.422 25.1699 741.864 25.1699C741.305 25.1699 740.852 25.623 740.852 26.1819C740.852 26.7408 741.305 27.1939 741.864 27.1939Z" fill="#28215A"/>
<path d="M754.034 27.1939C754.592 27.1939 755.046 26.7408 755.046 26.1819C755.046 25.623 754.592 25.1699 754.034 25.1699C753.475 25.1699 753.021 25.623 753.021 26.1819C753.021 26.7408 753.475 27.1939 754.034 27.1939Z" fill="#28215A"/>
<path d="M766.202 27.1939C766.761 27.1939 767.214 26.7408 767.214 26.1819C767.214 25.623 766.761 25.1699 766.202 25.1699C765.644 25.1699 765.19 25.623 765.19 26.1819C765.19 26.7408 765.644 27.1939 766.202 27.1939Z" fill="#28215A"/>
<path d="M778.371 27.1939C778.93 27.1939 779.383 26.7408 779.383 26.1819C779.383 25.623 778.93 25.1699 778.371 25.1699C777.812 25.1699 777.359 25.623 777.359 26.1819C777.359 26.7408 777.812 27.1939 778.371 27.1939Z" fill="#28215A"/>
<path d="M790.54 27.1939C791.099 27.1939 791.552 26.7408 791.552 26.1819C791.552 25.623 791.099 25.1699 790.54 25.1699C789.981 25.1699 789.528 25.623 789.528 26.1819C789.528 26.7408 789.981 27.1939 790.54 27.1939Z" fill="#28215A"/>
<path d="M802.71 27.1939C803.269 27.1939 803.722 26.7408 803.722 26.1819C803.722 25.623 803.269 25.1699 802.71 25.1699C802.151 25.1699 801.698 25.623 801.698 26.1819C801.698 26.7408 802.151 27.1939 802.71 27.1939Z" fill="#28215A"/>
<path d="M748.973 20.5169C748.973 21.0759 748.52 21.5289 747.961 21.5289C747.402 21.5289 746.949 21.0759 746.949 20.5169C746.949 19.9579 747.402 19.5049 747.961 19.5049C748.52 19.5049 748.973 19.9579 748.973 20.5169Z" fill="#28215A"/>
<path d="M761.143 20.5169C761.143 21.0759 760.69 21.5289 760.131 21.5289C759.572 21.5289 759.119 21.0759 759.119 20.5169C759.119 19.9579 759.572 19.5049 760.131 19.5049C760.69 19.5049 761.143 19.9579 761.143 20.5169Z" fill="#28215A"/>
<path d="M773.312 20.5169C773.312 21.0759 772.859 21.5289 772.3 21.5289C771.741 21.5289 771.288 21.0759 771.288 20.5169C771.288 19.9579 771.741 19.5049 772.3 19.5049C772.859 19.5049 773.312 19.9579 773.312 20.5169Z" fill="#28215A"/>
<path d="M785.481 20.5169C785.481 21.0759 785.028 21.5289 784.469 21.5289C783.91 21.5289 783.457 21.0759 783.457 20.5169C783.457 19.9579 783.91 19.5049 784.469 19.5049C785.028 19.5049 785.481 19.9579 785.481 20.5169Z" fill="#28215A"/>
<path d="M797.65 20.5169C797.65 21.0759 797.197 21.5289 796.638 21.5289C796.079 21.5289 795.626 21.0759 795.626 20.5169C795.626 19.9579 796.079 19.5049 796.638 19.5049C797.197 19.5049 797.65 19.9579 797.65 20.5169Z" fill="#28215A"/>
<path d="M809.819 20.5169C809.819 21.0759 809.366 21.5289 808.807 21.5289C808.248 21.5289 807.795 21.0759 807.795 20.5169C807.795 19.9579 808.248 19.5049 808.807 19.5049C809.366 19.5049 809.819 19.9579 809.819 20.5169Z" fill="#28215A"/>
<path d="M742.876 14.1858C742.876 14.7448 742.423 15.1978 741.864 15.1978C741.305 15.1978 740.852 14.7448 740.852 14.1858C740.852 13.6268 741.305 13.1738 741.864 13.1738C742.423 13.1748 742.876 13.6278 742.876 14.1858Z" fill="#28215A"/>
<path d="M755.044 14.1858C755.044 14.7448 754.592 15.1978 754.033 15.1978C753.474 15.1978 753.021 14.7448 753.021 14.1858C753.021 13.6268 753.474 13.1738 754.033 13.1738C754.592 13.1748 755.044 13.6278 755.044 14.1858Z" fill="#28215A"/>
<path d="M767.214 14.1858C767.214 14.7448 766.761 15.1978 766.202 15.1978C765.643 15.1978 765.19 14.7448 765.19 14.1858C765.19 13.6268 765.643 13.1738 766.202 13.1738C766.761 13.1748 767.214 13.6278 767.214 14.1858Z" fill="#28215A"/>
<path d="M779.383 14.1858C779.383 14.7448 778.93 15.1978 778.371 15.1978C777.812 15.1978 777.359 14.7448 777.359 14.1858C777.359 13.6268 777.812 13.1738 778.371 13.1738C778.93 13.1748 779.383 13.6278 779.383 14.1858Z" fill="#28215A"/>
<path d="M791.552 14.1858C791.552 14.7448 791.099 15.1978 790.54 15.1978C789.981 15.1978 789.528 14.7448 789.528 14.1858C789.528 13.6268 789.981 13.1738 790.54 13.1738C791.099 13.1748 791.552 13.6278 791.552 14.1858Z" fill="#28215A"/>
<path d="M803.721 14.1858C803.721 14.7448 803.268 15.1978 802.709 15.1978C802.15 15.1978 801.697 14.7448 801.697 14.1858C801.697 13.6268 802.15 13.1738 802.709 13.1738C803.268 13.1748 803.721 13.6278 803.721 14.1858Z" fill="#28215A"/>
<path d="M748.973 8.52079C748.973 9.07979 748.52 9.53279 747.961 9.53279C747.402 9.53279 746.949 9.07979 746.949 8.52079C746.949 7.96179 747.402 7.50879 747.961 7.50879C748.52 7.50879 748.973 7.96179 748.973 8.52079Z" fill="#28215A"/>
<path d="M760.131 9.53279C760.69 9.53279 761.143 9.0797 761.143 8.52079C761.143 7.96188 760.69 7.50879 760.131 7.50879C759.572 7.50879 759.119 7.96188 759.119 8.52079C759.119 9.0797 759.572 9.53279 760.131 9.53279Z" fill="#28215A"/>
<path d="M772.3 9.53279C772.859 9.53279 773.312 9.0797 773.312 8.52079C773.312 7.96188 772.859 7.50879 772.3 7.50879C771.741 7.50879 771.288 7.96188 771.288 8.52079C771.288 9.0797 771.741 9.53279 772.3 9.53279Z" fill="#28215A"/>
<path d="M784.469 9.53279C785.028 9.53279 785.481 9.0797 785.481 8.52079C785.481 7.96188 785.028 7.50879 784.469 7.50879C783.91 7.50879 783.457 7.96188 783.457 8.52079C783.457 9.0797 783.91 9.53279 784.469 9.53279Z" fill="#28215A"/>
<path d="M797.65 8.52079C797.65 9.07979 797.197 9.53279 796.638 9.53279C796.079 9.53279 795.626 9.07979 795.626 8.52079C795.626 7.96179 796.079 7.50879 796.638 7.50879C797.197 7.50879 797.65 7.96179 797.65 8.52079Z" fill="#28215A"/>
<path d="M808.808 9.53279C809.367 9.53279 809.82 9.0797 809.82 8.52079C809.82 7.96188 809.367 7.50879 808.808 7.50879C808.249 7.50879 807.796 7.96188 807.796 8.52079C807.796 9.0797 808.249 9.53279 808.808 9.53279Z" fill="#28215A"/>
</g>
<mask id="mask5_150_12" style="mask-type:luminance" maskUnits="userSpaceOnUse" x="362" y="0" width="100" height="67">
<path d="M461.937 0H362.434V66.319H461.937V0Z" fill="white"/>
</mask>
<g mask="url(#mask5_150_12)">
<mask id="mask6_150_12" style="mask-type:luminance" maskUnits="userSpaceOnUse" x="373" y="-18" width="72" height="75">
<path d="M419.806 56.8239C419.085 56.8239 418.363 56.7919 417.639 56.7279C411.168 56.1529 405.189 53.0319 401.019 48.0499L379.409 22.2289C375.239 17.2469 373.219 10.8119 373.794 4.34093C374.368 -2.13007 377.49 -8.10907 382.472 -12.2791C387.454 -16.4491 393.889 -18.4691 400.36 -17.8941C406.831 -17.3201 412.81 -14.1981 416.98 -9.21606L438.591 16.6049C442.761 21.5869 444.781 28.0219 444.206 34.4929C443.632 40.9649 440.51 46.9429 435.528 51.1129C431.102 54.8159 425.53 56.8239 419.806 56.8239Z" fill="white"/>
</mask>
<g mask="url(#mask6_150_12)">
<path d="M375.528 53.2506C376.087 53.2506 376.54 52.7975 376.54 52.2386C376.54 51.6796 376.087 51.2266 375.528 51.2266C374.969 51.2266 374.516 51.6796 374.516 52.2386C374.516 52.7975 374.969 53.2506 375.528 53.2506Z" fill="#28215A"/>
<path d="M387.697 53.2506C388.255 53.2506 388.709 52.7975 388.709 52.2386C388.709 51.6796 388.255 51.2266 387.697 51.2266C387.138 51.2266 386.685 51.6796 386.685 52.2386C386.685 52.7975 387.138 53.2506 387.697 53.2506Z" fill="#28215A"/>
<path d="M400.878 52.2386C400.878 52.7976 400.425 53.2506 399.866 53.2506C399.307 53.2506 398.854 52.7976 398.854 52.2386C398.854 51.6796 399.307 51.2266 399.866 51.2266C400.425 51.2266 400.878 51.6796 400.878 52.2386Z" fill="#28215A"/>
<path d="M412.035 53.2506C412.594 53.2506 413.047 52.7975 413.047 52.2386C413.047 51.6796 412.594 51.2266 412.035 51.2266C411.477 51.2266 411.023 51.6796 411.023 52.2386C411.023 52.7975 411.477 53.2506 412.035 53.2506Z" fill="#28215A"/>
<path d="M424.204 53.2506C424.763 53.2506 425.216 52.7975 425.216 52.2386C425.216 51.6796 424.763 51.2266 424.204 51.2266C423.645 51.2266 423.192 51.6796 423.192 52.2386C423.192 52.7975 423.645 53.2506 424.204 53.2506Z" fill="#28215A"/>
<path d="M437.385 52.2386C437.385 52.7976 436.932 53.2506 436.373 53.2506C435.814 53.2506 435.361 52.7976 435.361 52.2386C435.361 51.6796 435.814 51.2266 436.373 51.2266C436.932 51.2266 437.385 51.6796 437.385 52.2386Z" fill="#28215A"/>
<path d="M382.637 46.5725C382.637 47.1315 382.184 47.5845 381.625 47.5845C381.066 47.5845 380.613 47.1315 380.613 46.5725C380.613 46.0135 381.066 45.5605 381.625 45.5605C382.184 45.5615 382.637 46.0135 382.637 46.5725Z" fill="#28215A"/>
<path d="M394.806 46.5725C394.806 47.1315 394.353 47.5845 393.794 47.5845C393.235 47.5845 392.782 47.1315 392.782 46.5725C392.782 46.0135 393.235 45.5605 393.794 45.5605C394.353 45.5615 394.806 46.0135 394.806 46.5725Z" fill="#28215A"/>
<path d="M406.976 46.5725C406.976 47.1315 406.523 47.5845 405.964 47.5845C405.405 47.5845 404.952 47.1315 404.952 46.5725C404.952 46.0135 405.405 45.5605 405.964 45.5605C406.523 45.5605 406.976 46.0135 406.976 46.5725Z" fill="#28215A"/>
<path d="M419.145 46.5725C419.145 47.1315 418.692 47.5845 418.133 47.5845C417.574 47.5845 417.121 47.1315 417.121 46.5725C417.121 46.0135 417.574 45.5605 418.133 45.5605C418.692 45.5615 419.145 46.0135 419.145 46.5725Z" fill="#28215A"/>
<path d="M431.314 46.5725C431.314 47.1315 430.861 47.5845 430.302 47.5845C429.743 47.5845 429.29 47.1315 429.29 46.5725C429.29 46.0135 429.743 45.5605 430.302 45.5605C430.861 45.5615 431.314 46.0135 431.314 46.5725Z" fill="#28215A"/>
<path d="M443.483 46.5725C443.483 47.1315 443.03 47.5845 442.471 47.5845C441.912 47.5845 441.459 47.1315 441.459 46.5725C441.459 46.0135 441.912 45.5605 442.471 45.5605C443.03 45.5615 443.483 46.0135 443.483 46.5725Z" fill="#28215A"/>
<path d="M376.54 40.2425C376.54 40.8015 376.087 41.2545 375.528 41.2545C374.969 41.2545 374.516 40.8015 374.516 40.2425C374.516 39.6835 374.969 39.2305 375.528 39.2305C376.087 39.2305 376.54 39.6835 376.54 40.2425Z" fill="#28215A"/>
<path d="M388.709 40.2425C388.709 40.8015 388.256 41.2545 387.697 41.2545C387.138 41.2545 386.685 40.8015 386.685 40.2425C386.685 39.6835 387.138 39.2305 387.697 39.2305C388.256 39.2305 388.709 39.6835 388.709 40.2425Z" fill="#28215A"/>
<path d="M400.878 40.2425C400.878 40.8015 400.425 41.2545 399.866 41.2545C399.307 41.2545 398.854 40.8015 398.854 40.2425C398.854 39.6835 399.307 39.2305 399.866 39.2305C400.425 39.2305 400.878 39.6835 400.878 40.2425Z" fill="#28215A"/>
<path d="M413.047 40.2425C413.047 40.8015 412.594 41.2545 412.035 41.2545C411.476 41.2545 411.023 40.8015 411.023 40.2425C411.023 39.6835 411.476 39.2305 412.035 39.2305C412.594 39.2305 413.047 39.6835 413.047 40.2425Z" fill="#28215A"/>
<path d="M425.216 40.2425C425.216 40.8015 424.763 41.2545 424.204 41.2545C423.645 41.2545 423.192 40.8015 423.192 40.2425C423.192 39.6835 423.645 39.2305 424.204 39.2305C424.763 39.2305 425.216 39.6835 425.216 40.2425Z" fill="#28215A"/>
<path d="M437.385 40.2425C437.385 40.8015 436.932 41.2545 436.373 41.2545C435.814 41.2545 435.361 40.8015 435.361 40.2425C435.361 39.6835 435.814 39.2305 436.373 39.2305C436.932 39.2305 437.385 39.6835 437.385 40.2425Z" fill="#28215A"/>
<path d="M381.625 35.5894C382.184 35.5894 382.637 35.1363 382.637 34.5774C382.637 34.0185 382.184 33.5654 381.625 33.5654C381.066 33.5654 380.613 34.0185 380.613 34.5774C380.613 35.1363 381.066 35.5894 381.625 35.5894Z" fill="#28215A"/>
<path d="M394.806 34.5774C394.806 35.1364 394.353 35.5894 393.794 35.5894C393.235 35.5894 392.782 35.1364 392.782 34.5774C392.782 34.0184 393.235 33.5654 393.794 33.5654C394.353 33.5664 394.806 34.0194 394.806 34.5774Z" fill="#28215A"/>
<path d="M405.964 35.5894C406.523 35.5894 406.976 35.1363 406.976 34.5774C406.976 34.0185 406.523 33.5654 405.964 33.5654C405.405 33.5654 404.952 34.0185 404.952 34.5774C404.952 35.1363 405.405 35.5894 405.964 35.5894Z" fill="#28215A"/>
<path d="M418.133 35.5894C418.692 35.5894 419.145 35.1363 419.145 34.5774C419.145 34.0185 418.692 33.5654 418.133 33.5654C417.574 33.5654 417.121 34.0185 417.121 34.5774C417.121 35.1363 417.574 35.5894 418.133 35.5894Z" fill="#28215A"/>
<path d="M431.314 34.5774C431.314 35.1364 430.861 35.5894 430.302 35.5894C429.743 35.5894 429.29 35.1364 429.29 34.5774C429.29 34.0184 429.743 33.5654 430.302 33.5654C430.861 33.5664 431.314 34.0194 431.314 34.5774Z" fill="#28215A"/>
<path d="M442.472 35.5894C443.031 35.5894 443.484 35.1363 443.484 34.5774C443.484 34.0185 443.031 33.5654 442.472 33.5654C441.913 33.5654 441.46 34.0185 441.46 34.5774C441.46 35.1363 441.913 35.5894 442.472 35.5894Z" fill="#28215A"/>
<path d="M376.54 28.2474C376.54 28.8064 376.087 29.2594 375.528 29.2594C374.969 29.2594 374.516 28.8064 374.516 28.2474C374.516 27.6884 374.969 27.2354 375.528 27.2354C376.087 27.2354 376.54 27.6884 376.54 28.2474Z" fill="#28215A"/>
<path d="M388.709 28.2474C388.709 28.8064 388.256 29.2594 387.697 29.2594C387.138 29.2594 386.685 28.8064 386.685 28.2474C386.685 27.6884 387.138 27.2354 387.697 27.2354C388.256 27.2354 388.709 27.6884 388.709 28.2474Z" fill="#28215A"/>
<path d="M400.878 28.2474C400.878 28.8064 400.425 29.2594 399.866 29.2594C399.307 29.2594 398.854 28.8064 398.854 28.2474C398.854 27.6884 399.307 27.2354 399.866 27.2354C400.425 27.2354 400.878 27.6884 400.878 28.2474Z" fill="#28215A"/>
<path d="M413.047 28.2474C413.047 28.8064 412.594 29.2594 412.035 29.2594C411.476 29.2594 411.023 28.8064 411.023 28.2474C411.023 27.6884 411.476 27.2354 412.035 27.2354C412.594 27.2354 413.047 27.6884 413.047 28.2474Z" fill="#28215A"/>
<path d="M425.216 28.2474C425.216 28.8064 424.763 29.2594 424.204 29.2594C423.645 29.2594 423.192 28.8064 423.192 28.2474C423.192 27.6884 423.645 27.2354 424.204 27.2354C424.763 27.2354 425.216 27.6884 425.216 28.2474Z" fill="#28215A"/>
<path d="M437.385 28.2474C437.385 28.8064 436.932 29.2594 436.373 29.2594C435.814 29.2594 435.361 28.8064 435.361 28.2474C435.361 27.6884 435.814 27.2354 436.373 27.2354C436.932 27.2354 437.385 27.6884 437.385 28.2474Z" fill="#28215A"/>
<path d="M381.625 23.5943C382.184 23.5943 382.637 23.1412 382.637 22.5823C382.637 22.0234 382.184 21.5703 381.625 21.5703C381.066 21.5703 380.613 22.0234 380.613 22.5823C380.613 23.1412 381.066 23.5943 381.625 23.5943Z" fill="#28215A"/>
<path d="M394.806 22.5823C394.806 23.1413 394.353 23.5943 393.794 23.5943C393.235 23.5943 392.782 23.1413 392.782 22.5823C392.782 22.0233 393.235 21.5703 393.794 21.5703C394.353 21.5703 394.806 22.0233 394.806 22.5823Z" fill="#28215A"/>
<path d="M405.964 23.5943C406.523 23.5943 406.976 23.1412 406.976 22.5823C406.976 22.0234 406.523 21.5703 405.964 21.5703C405.405 21.5703 404.952 22.0234 404.952 22.5823C404.952 23.1412 405.405 23.5943 405.964 23.5943Z" fill="#28215A"/>
<path d="M418.133 23.5943C418.692 23.5943 419.145 23.1412 419.145 22.5823C419.145 22.0234 418.692 21.5703 418.133 21.5703C417.574 21.5703 417.121 22.0234 417.121 22.5823C417.121 23.1412 417.574 23.5943 418.133 23.5943Z" fill="#28215A"/>
<path d="M431.314 22.5823C431.314 23.1413 430.861 23.5943 430.302 23.5943C429.743 23.5943 429.29 23.1413 429.29 22.5823C429.29 22.0233 429.743 21.5703 430.302 21.5703C430.861 21.5703 431.314 22.0233 431.314 22.5823Z" fill="#28215A"/>
<path d="M442.472 23.5943C443.031 23.5943 443.484 23.1412 443.484 22.5823C443.484 22.0234 443.031 21.5703 442.472 21.5703C441.913 21.5703 441.46 22.0234 441.46 22.5823C441.46 23.1412 441.913 23.5943 442.472 23.5943Z" fill="#28215A"/>
<path d="M375.528 17.2633C376.087 17.2633 376.54 16.8102 376.54 16.2513C376.54 15.6923 376.087 15.2393 375.528 15.2393C374.969 15.2393 374.516 15.6923 374.516 16.2513C374.516 16.8102 374.969 17.2633 375.528 17.2633Z" fill="#28215A"/>
<path d="M387.697 17.2633C388.255 17.2633 388.709 16.8102 388.709 16.2513C388.709 15.6923 388.255 15.2393 387.697 15.2393C387.138 15.2393 386.685 15.6923 386.685 16.2513C386.685 16.8102 387.138 17.2633 387.697 17.2633Z" fill="#28215A"/>
<path d="M400.878 16.2513C400.878 16.8103 400.425 17.2633 399.866 17.2633C399.307 17.2633 398.854 16.8103 398.854 16.2513C398.854 15.6923 399.307 15.2393 399.866 15.2393C400.425 15.2403 400.878 15.6933 400.878 16.2513Z" fill="#28215A"/>
<path d="M412.035 17.2633C412.594 17.2633 413.047 16.8102 413.047 16.2513C413.047 15.6923 412.594 15.2393 412.035 15.2393C411.477 15.2393 411.023 15.6923 411.023 16.2513C411.023 16.8102 411.477 17.2633 412.035 17.2633Z" fill="#28215A"/>
<path d="M424.204 17.2633C424.763 17.2633 425.216 16.8102 425.216 16.2513C425.216 15.6923 424.763 15.2393 424.204 15.2393C423.645 15.2393 423.192 15.6923 423.192 16.2513C423.192 16.8102 423.645 17.2633 424.204 17.2633Z" fill="#28215A"/>
<path d="M437.385 16.2513C437.385 16.8103 436.932 17.2633 436.373 17.2633C435.814 17.2633 435.361 16.8103 435.361 16.2513C435.361 15.6923 435.814 15.2393 436.373 15.2393C436.932 15.2403 437.385 15.6933 437.385 16.2513Z" fill="#28215A"/>
<path d="M381.625 11.5982C382.184 11.5982 382.637 11.1451 382.637 10.5862C382.637 10.0273 382.184 9.57422 381.625 9.57422C381.066 9.57422 380.613 10.0273 380.613 10.5862C380.613 11.1451 381.066 11.5982 381.625 11.5982Z" fill="#28215A"/>
<path d="M394.806 10.5862C394.806 11.1452 394.353 11.5982 393.794 11.5982C393.235 11.5982 392.782 11.1452 392.782 10.5862C392.782 10.0272 393.235 9.57422 393.794 9.57422C394.353 9.57422 394.806 10.0272 394.806 10.5862Z" fill="#28215A"/>
<path d="M405.964 11.5982C406.523 11.5982 406.976 11.1451 406.976 10.5862C406.976 10.0273 406.523 9.57422 405.964 9.57422C405.405 9.57422 404.952 10.0273 404.952 10.5862C404.952 11.1451 405.405 11.5982 405.964 11.5982Z" fill="#28215A"/>
<path d="M418.133 11.5982C418.692 11.5982 419.145 11.1451 419.145 10.5862C419.145 10.0273 418.692 9.57422 418.133 9.57422C417.574 9.57422 417.121 10.0273 417.121 10.5862C417.121 11.1451 417.574 11.5982 418.133 11.5982Z" fill="#28215A"/>
<path d="M431.314 10.5862C431.314 11.1452 430.861 11.5982 430.302 11.5982C429.743 11.5982 429.29 11.1452 429.29 10.5862C429.29 10.0272 429.743 9.57422 430.302 9.57422C430.861 9.57422 431.314 10.0272 431.314 10.5862Z" fill="#28215A"/>
<path d="M442.472 11.5982C443.031 11.5982 443.484 11.1451 443.484 10.5862C443.484 10.0273 443.031 9.57422 442.472 9.57422C441.913 9.57422 441.46 10.0273 441.46 10.5862C441.46 11.1451 441.913 11.5982 442.472 11.5982Z" fill="#28215A"/>
<path d="M375.528 5.26716C376.087 5.26716 376.54 4.81408 376.54 4.25516C376.54 3.69625 376.087 3.24316 375.528 3.24316C374.969 3.24316 374.516 3.69625 374.516 4.25516C374.516 4.81408 374.969 5.26716 375.528 5.26716Z" fill="#28215A"/>
<path d="M387.697 5.26716C388.255 5.26716 388.709 4.81408 388.709 4.25516C388.709 3.69625 388.255 3.24316 387.697 3.24316C387.138 3.24316 386.685 3.69625 386.685 4.25516C386.685 4.81408 387.138 5.26716 387.697 5.26716Z" fill="#28215A"/>
<path d="M400.878 4.25516C400.878 4.81416 400.425 5.26716 399.866 5.26716C399.307 5.26716 398.854 4.81416 398.854 4.25516C398.854 3.69616 399.307 3.24316 399.866 3.24316C400.425 3.24416 400.878 3.69716 400.878 4.25516Z" fill="#28215A"/>
<path d="M412.035 5.26716C412.594 5.26716 413.047 4.81408 413.047 4.25516C413.047 3.69625 412.594 3.24316 412.035 3.24316C411.477 3.24316 411.023 3.69625 411.023 4.25516C411.023 4.81408 411.477 5.26716 412.035 5.26716Z" fill="#28215A"/>
<path d="M424.204 5.26716C424.763 5.26716 425.216 4.81408 425.216 4.25516C425.216 3.69625 424.763 3.24316 424.204 3.24316C423.645 3.24316 423.192 3.69625 423.192 4.25516C423.192 4.81408 423.645 5.26716 424.204 5.26716Z" fill="#28215A"/>
<path d="M437.385 4.25516C437.385 4.81416 436.932 5.26716 436.373 5.26716C435.814 5.26716 435.361 4.81416 435.361 4.25516C435.361 3.69616 435.814 3.24316 436.373 3.24316C436.932 3.24416 437.385 3.69716 437.385 4.25516Z" fill="#28215A"/>
</g>
</g>
</g>
<defs>
<clipPath id="clip0_150_12">
<rect width="820" height="400" fill="white"/>
</clipPath>
</defs>
</svg>
