<svg width="486" height="346" viewBox="0 0 486 346" fill="none" xmlns="http://www.w3.org/2000/svg">
<path d="M175.842 74.4561C192.966 83.0481 214.004 83.3991 231.405 75.3831C252.029 65.8821 266.01 46.3711 284.052 32.5841C296.074 23.3971 310.018 16.7381 324.719 13.1631C340.661 9.28613 360.429 10.4731 369.557 24.1061C377.105 35.3791 374.239 50.5041 369.767 63.3131C365.295 76.1221 359.396 89.3571 361.788 102.712C365.355 122.629 385.28 134.411 399.176 149.119C424.494 175.915 430.52 219.1 413.506 251.804C410.034 258.479 405.525 264.896 399.101 268.814C392.877 272.611 385.43 273.734 378.193 274.619C361.969 276.603 345.044 277.714 329.701 272.081C308.814 264.414 294.1 245.528 274.511 234.978C257.064 225.582 236.646 223.298 216.831 223.529C204.79 223.669 192.377 224.776 181.702 230.35C170.972 235.953 162.973 245.541 153.542 253.131C136.803 266.603 115.064 273.71 93.6 272.728C86.305 272.394 78.696 271.006 73.005 266.431C61.99 257.575 62.49 239.776 70.024 227.818C77.557 215.859 90.134 208.209 101.966 200.479C105.217 198.355 108.533 196.106 110.663 192.86C114.492 187.025 113.627 179.146 110.671 172.824C107.715 166.502 102.961 161.231 98.933 155.531C89.831 142.652 84.353 127.24 83.284 111.505C82.351 97.7721 85.351 82.7271 95.704 73.6541C107.76 63.0881 123.41 65.0851 138.175 64.0581C153.311 63.0061 162.311 67.6661 175.842 74.4561Z" fill="#F0EEF9"/>
<path opacity="0.5" d="M153.553 345.43H60.3868C58.1058 345.43 56.2568 343.581 56.2568 341.301C56.2568 339.02 58.1058 337.171 60.3868 337.171H153.553C155.834 337.171 157.682 339.02 157.682 341.301C157.683 343.581 155.834 345.43 153.553 345.43Z" fill="#EAE6FF"/>
<path opacity="0.5" d="M368.877 329.302H275.711C273.43 329.302 271.582 327.453 271.582 325.173C271.582 322.892 273.431 321.043 275.711 321.043H368.877C371.158 321.043 373.006 322.892 373.006 325.173C373.007 327.454 371.158 329.302 368.877 329.302Z" fill="#EAE6FF"/>
<path opacity="0.5" d="M180.244 334.806H157.148C154.867 334.806 153.019 332.957 153.019 330.677C153.019 328.396 154.868 326.547 157.148 326.547H180.244C182.525 326.547 184.373 328.396 184.373 330.677C184.373 332.957 182.525 334.806 180.244 334.806Z" fill="#EAE6FF"/>
<path opacity="0.5" d="M255.881 338.935H193.379C191.098 338.935 189.249 337.086 189.249 334.806C189.249 332.525 191.098 330.677 193.379 330.677H255.881C258.162 330.677 260.01 332.526 260.01 334.806C260.01 337.087 258.162 338.935 255.881 338.935Z" fill="#EAE6FF"/>
<path d="M482.307 311.924H3.98462C1.99962 311.924 0.390625 310.315 0.390625 308.33C0.390625 306.345 1.99962 304.736 3.98462 304.736H482.308C484.293 304.736 485.902 306.345 485.902 308.33C485.901 310.315 484.292 311.924 482.307 311.924Z" fill="#DDD6FF"/>
<path d="M117.169 308.108L162.32 174.412L216.5 308.108H117.169Z" fill="#DDD6FF"/>
<path d="M175.257 206.321L170.199 215.549L164.013 198.627C164.013 198.627 158.912 207.087 157.784 208.509C157.197 209.232 154.984 205.757 152.953 202.17L162.321 174.417L175.257 206.321Z" fill="#EAE6FF"/>
<path d="M169.785 295.63L169.022 297.835V297.855L137.372 248.169L140.459 239.029L169.785 295.63Z" fill="#BFBAE8"/>
<path d="M190.874 244.862L168.783 298.662L168.695 298.485L188.772 239.688L190.874 244.862Z" fill="#BFBAE8"/>
<path d="M9.56055 308.108L87.8215 165.234L176.618 308.108H9.56055Z" fill="#DDD6FF"/>
<path d="M85.5501 207.388L80.9151 190.147L71.1621 195.647L87.8211 165.234L106.311 194.983L93.0891 185.772L85.5501 207.388Z" fill="#EAE6FF"/>
<path d="M164.013 308.042L210.293 195.354L268.988 308.042H164.013Z" fill="#DDD6FF"/>
<path d="M219.235 212.527L212.529 225.702L208.014 216.677L204.627 221.19L201.13 217.694L210.294 195.354L219.235 212.527Z" fill="#EAE6FF"/>
<path d="M336.182 308.108L377.972 184.364L428.119 308.108H336.182Z" fill="#DDD6FF"/>
<path d="M389.947 213.898L385.265 222.439L379.539 206.777C379.539 206.777 374.818 214.607 373.773 215.923C373.229 216.592 371.181 213.376 369.301 210.056L377.972 184.369L389.947 213.898Z" fill="#EAE6FF"/>
<path d="M384.882 296.559L384.176 298.599V298.618L354.882 252.631L357.739 244.171L384.882 296.559Z" fill="#BFBAE8"/>
<path d="M404.401 249.57L383.955 299.365L383.873 299.201L402.456 244.78L404.401 249.57Z" fill="#BFBAE8"/>
<path d="M236.583 308.108L309.02 175.869L391.206 308.108H236.583Z" fill="#DDD6FF"/>
<path d="M306.917 214.885L302.628 198.928L293.601 204.019L309.02 175.869L326.133 203.404L313.895 194.879L306.917 214.885Z" fill="#EAE6FF"/>
<path d="M379.539 308.046L422.374 203.746L476.7 308.046H379.539Z" fill="#DDD6FF"/>
<path d="M430.65 219.642L424.444 231.836L420.264 223.483L417.13 227.66L413.893 224.424L422.374 203.747L430.65 219.642Z" fill="#EAE6FF"/>
<path d="M98.0561 223.873L115.75 272.292C116.965 275.612 115.26 279.289 111.93 280.505L103.915 283.432C106.543 282.471 108.16 279.968 108.119 277.32L110.024 276.625C111.456 276.103 112.183 274.527 111.664 273.111L94.4491 226.002C93.9331 224.584 92.3611 223.84 90.9261 224.364L89.0591 225.043C87.3921 222.92 84.4991 222.013 81.8291 222.987L89.8431 220.061C90.2601 219.909 90.6811 219.8 91.1011 219.732C91.4771 219.684 91.8601 219.656 92.2341 219.668C92.2731 219.663 92.3121 219.676 92.3641 219.672C92.5141 219.679 92.6611 219.695 92.8071 219.711C93.2451 219.761 93.6721 219.857 94.0951 220.009C94.4301 220.112 94.7541 220.257 95.0651 220.439C96.4101 221.157 97.4981 222.341 98.0561 223.873Z" fill="#6454C6"/>
<path d="M94.4486 226.002L111.664 273.111C112.183 274.527 111.456 276.104 110.024 276.625L108.119 277.32C108.11 276.625 107.982 275.914 107.728 275.219L90.0326 226.802C89.7956 226.153 89.4656 225.559 89.0586 225.044L90.9256 224.365C92.3606 223.84 93.9326 224.584 94.4486 226.002Z" fill="white"/>
<path d="M108.117 277.319C108.158 279.969 106.544 282.469 103.918 283.428L79.6385 292.293L79.6075 292.302L74.9135 294.015L71.2545 295.351C69.7365 295.909 68.1515 295.852 66.7495 295.311C66.6995 295.287 66.6345 295.269 66.5765 295.237L66.3715 295.139C66.2565 295.081 66.1505 295.031 66.0545 294.974C65.9945 294.949 65.9455 294.925 65.8875 294.9C65.8725 294.89 65.8465 294.875 65.8225 294.859L65.8155 294.85C65.7735 294.835 65.7415 294.819 65.7075 294.795C65.6665 294.769 65.6255 294.753 65.5925 294.72C65.5675 294.711 65.5605 294.704 65.5435 294.696C65.4875 294.656 65.4285 294.614 65.3775 294.572C65.3055 294.524 65.2395 294.474 65.1745 294.425C65.1345 294.392 65.0925 294.359 65.0525 294.335C64.9945 294.285 64.9265 294.228 64.8695 294.179C64.5585 293.925 64.2735 293.622 64.0165 293.293C64.0005 293.276 63.9855 293.243 63.9675 293.226C63.8345 293.056 63.7145 292.883 63.5995 292.694C63.3765 292.335 63.1885 291.949 63.0415 291.531L45.3425 243.117C44.1275 239.795 45.8355 236.128 49.1665 234.907L81.8295 222.984C84.5045 222.009 87.3915 222.919 89.0585 225.043C89.4685 225.56 89.7975 226.158 90.0335 226.796L90.7715 228.815L95.2845 241.165L95.4565 241.623L97.2625 246.568L98.5095 249.996L100.472 255.342L102.578 261.114L103.129 262.615L104.352 265.976L107.733 275.22C107.977 275.909 108.109 276.622 108.117 277.319Z" fill="#7860DB"/>
<path d="M73.1621 282.563L70.7441 275.947L73.2401 275.037C73.6801 274.876 74.0231 274.773 74.2701 274.731C74.6161 274.666 74.9251 274.67 75.2011 274.741C75.4761 274.814 75.7321 274.961 75.9651 275.187C76.1991 275.411 76.3761 275.687 76.4961 276.015C76.7011 276.579 76.6951 277.121 76.4811 277.641C76.2641 278.16 75.6892 278.591 74.7522 278.933L73.0531 279.553L74.0371 282.243L73.1621 282.563ZM72.7691 278.773L74.4811 278.148C75.0461 277.942 75.4101 277.69 75.5701 277.393C75.7321 277.095 75.7411 276.754 75.6021 276.372C75.5001 276.097 75.3431 275.885 75.1311 275.738C74.9191 275.592 74.6871 275.53 74.4361 275.551C74.2751 275.566 73.9932 275.644 73.5972 275.789L71.9032 276.407L72.7691 278.773Z" fill="#F2F2F2" stroke="white" stroke-width="0.2295" stroke-miterlimit="10"/>
<path d="M77.917 280.826L78.04 273.283L78.985 272.939L84.111 278.567L83.115 278.932L81.609 277.21L78.841 278.219L78.845 280.489L77.917 280.826ZM78.831 277.412L81.078 276.594L79.716 275.015C79.303 274.535 78.978 274.134 78.744 273.812C78.815 274.268 78.849 274.732 78.849 275.207L78.831 277.412Z" fill="#F2F2F2" stroke="white" stroke-width="0.2295" stroke-miterlimit="10"/>
<path d="M83.7352 276.293L84.5372 275.919C84.6962 276.237 84.8862 276.474 85.1062 276.635C85.3262 276.795 85.6122 276.884 85.9622 276.906C86.3092 276.927 86.6732 276.868 87.0472 276.731C87.3832 276.609 87.6602 276.452 87.8782 276.26C88.0992 276.067 88.2382 275.861 88.3012 275.642C88.3642 275.424 88.3582 275.213 88.2812 275.007C88.2072 274.799 88.0802 274.641 87.9012 274.529C87.7262 274.418 87.4792 274.361 87.1632 274.357C86.9602 274.352 86.5282 274.387 85.8672 274.464C85.2042 274.54 84.7282 274.557 84.4382 274.519C84.0602 274.469 83.7502 274.351 83.5052 274.161C83.2622 273.972 83.0822 273.727 82.9722 273.421C82.8512 273.089 82.8302 272.741 82.9132 272.381C82.9962 272.022 83.1932 271.701 83.5042 271.416C83.8142 271.134 84.1902 270.909 84.6362 270.747C85.1262 270.567 85.5872 270.49 86.0202 270.511C86.4522 270.531 86.8252 270.658 87.1392 270.892C87.4532 271.125 87.6882 271.433 87.8462 271.816L87.0282 272.185C86.8292 271.783 86.5612 271.524 86.2242 271.405C85.8862 271.286 85.4622 271.32 84.9532 271.506C84.4232 271.699 84.0712 271.936 83.9002 272.219C83.7282 272.502 83.6942 272.781 83.7952 273.054C83.8812 273.292 84.0372 273.455 84.2662 273.545C84.4882 273.638 84.9882 273.634 85.7592 273.535C86.5292 273.436 87.0682 273.4 87.3792 273.421C87.8282 273.459 88.1952 273.581 88.4782 273.786C88.7602 273.991 88.9672 274.271 89.0962 274.625C89.2262 274.978 89.2462 275.346 89.1572 275.732C89.0702 276.117 88.8692 276.464 88.5552 276.776C88.2402 277.088 87.8472 277.328 87.3752 277.5C86.7742 277.72 86.2412 277.815 85.7732 277.788C85.3022 277.763 84.8902 277.615 84.5312 277.349C84.1762 277.084 83.9112 276.731 83.7352 276.293Z" fill="#F2F2F2" stroke="white" stroke-width="0.2295" stroke-miterlimit="10"/>
<path d="M89.9051 274.043L90.7051 273.669C90.8641 273.985 91.0551 274.224 91.2751 274.383C91.4951 274.543 91.7801 274.634 92.1291 274.655C92.4771 274.676 92.8411 274.619 93.2171 274.481C93.5511 274.358 93.8281 274.201 94.0481 274.009C94.2671 273.816 94.4071 273.611 94.4691 273.392C94.5291 273.172 94.5261 272.962 94.4491 272.757C94.3731 272.55 94.2471 272.39 94.0721 272.279C93.8931 272.167 93.6471 272.11 93.3311 272.106C93.1291 272.102 92.6961 272.137 92.0361 272.214C91.3731 272.289 90.8981 272.308 90.6071 272.268C90.2311 272.217 89.9201 272.098 89.6741 271.908C89.4281 271.721 89.2531 271.475 89.1411 271.171C89.0171 270.837 88.9991 270.489 89.0821 270.129C89.1651 269.769 89.3631 269.45 89.6711 269.165C89.9801 268.883 90.3591 268.66 90.8051 268.496C91.2951 268.317 91.7581 268.239 92.1911 268.258C92.6221 268.28 92.9941 268.408 93.3091 268.641C93.6231 268.874 93.8581 269.182 94.0161 269.563L93.1981 269.933C93.0001 269.532 92.7321 269.272 92.3951 269.152C92.0551 269.036 91.6321 269.069 91.1231 269.253C90.5931 269.446 90.2411 269.684 90.0711 269.968C89.9001 270.25 89.8641 270.527 89.9641 270.802C90.0491 271.04 90.2061 271.204 90.4361 271.296C90.6581 271.387 91.1581 271.384 91.9281 271.283C92.6991 271.185 93.2381 271.149 93.5471 271.171C93.9981 271.209 94.3641 271.33 94.6461 271.534C94.9301 271.739 95.1361 272.019 95.2671 272.375C95.3961 272.727 95.4181 273.095 95.3261 273.48C95.2401 273.865 95.0371 274.213 94.7241 274.524C94.4101 274.835 94.0171 275.077 93.5441 275.25C92.9441 275.469 92.4111 275.566 91.9421 275.537C91.4751 275.512 91.0591 275.364 90.7021 275.099C90.3441 274.833 90.0781 274.481 89.9051 274.043Z" fill="#F2F2F2" stroke="white" stroke-width="0.2295" stroke-miterlimit="10"/>
<path d="M74.1614 266.814C71.8484 266.814 69.5444 266.235 67.4994 265.138C64.4204 263.5 62.0615 260.794 60.8645 257.517C59.6335 254.143 59.7304 250.464 61.1374 247.157C62.6404 243.559 65.6164 240.722 69.3024 239.375C72.9794 238.035 77.1194 238.293 80.5664 240.067C83.7734 241.687 86.2194 244.437 87.4534 247.811C88.6504 251.087 88.5925 254.675 87.2935 257.911C85.8115 261.639 82.7944 264.571 79.0144 265.95C77.4444 266.523 75.8124 266.814 74.1614 266.814ZM74.1535 239.334C72.5985 239.334 71.0614 239.607 69.5834 240.146C66.1124 241.414 63.3085 244.086 61.8905 247.476C60.5645 250.593 60.4724 254.058 61.6344 257.234C62.7644 260.323 64.9824 262.872 67.8854 264.413C71.1924 266.187 75.1864 266.475 78.7314 265.181C82.2924 263.88 85.1335 261.12 86.5325 257.608C87.7585 254.559 87.8104 251.179 86.6824 248.092C85.5214 244.914 83.2175 242.324 80.1945 240.797C78.3295 239.839 76.2415 239.334 74.1535 239.334Z" fill="#F2F2F2"/>
<path d="M67.7393 249.225C65.5233 249.225 63.3063 248.692 61.3243 247.683L60.9873 247.511L61.1363 247.159C62.6393 243.559 65.6153 240.722 69.3013 239.375C72.9783 238.035 77.1183 238.293 80.5653 240.067L80.9043 240.239L80.7563 240.59C79.2393 244.19 76.2613 247.025 72.5893 248.366C71.0223 248.937 69.3923 249.225 67.7393 249.225ZM62.0443 247.124C65.2323 248.631 68.9753 248.809 72.3053 247.595C75.6453 246.377 78.3723 243.848 79.8473 240.624C76.6683 239.109 72.9223 238.926 69.5833 240.145C66.2333 241.369 63.5063 243.901 62.0443 247.124Z" fill="#F2F2F2"/>
<path d="M74.1618 266.814C71.8488 266.814 69.5448 266.235 67.4998 265.138L67.1758 264.964L67.3118 264.624C68.7878 260.891 71.8058 257.957 75.5888 256.575C79.3528 255.202 83.6048 255.512 87.1078 257.398L87.4288 257.571L87.2948 257.911C85.8118 261.64 82.7948 264.571 79.0148 265.951C77.4448 266.523 75.8128 266.814 74.1618 266.814ZM68.2148 264.584C71.4528 266.207 75.3028 266.432 78.7308 265.181C82.1748 263.923 84.9478 261.299 86.3908 257.951C83.1538 256.325 79.2978 256.095 75.8708 257.348C72.4228 258.605 69.6508 261.232 68.2148 264.584Z" fill="#F2F2F2"/>
<path d="M86.9494 247.577L61.1162 256.963L61.3962 257.734L87.2294 248.347L86.9494 247.577Z" fill="#F2F2F2"/>
<path d="M69.8278 239.644L69.0557 239.926L78.4844 265.731L79.2565 265.449L69.8278 239.644Z" fill="#F2F2F2"/>
<path d="M77.3662 266.237C73.4482 266.237 68.9421 261.681 66.6491 255.404C63.9701 248.078 65.1621 240.887 69.3021 239.374C69.8251 239.184 70.3781 239.088 70.9511 239.088C74.8681 239.088 79.3741 243.644 81.6671 249.92C84.3461 257.246 83.1542 264.437 79.0132 265.95C78.4912 266.141 77.9372 266.237 77.3662 266.237ZM70.9511 239.909C70.4751 239.909 70.0151 239.989 69.5831 240.146C65.8701 241.504 64.8962 248.222 67.4182 255.123C69.5982 261.088 73.7791 265.417 77.3651 265.417C77.8401 265.417 78.2981 265.337 78.7301 265.18C82.4461 263.823 83.4191 257.104 80.8961 250.202C78.7181 244.238 74.5361 239.909 70.9511 239.909Z" fill="white"/>
<path d="M122.095 238.863L116.186 290.07C116.101 290.802 115.897 291.498 115.594 292.124C114.441 294.509 111.872 296.019 109.094 295.7L74.5487 291.718C72.9447 291.534 71.5547 290.771 70.5407 289.665C70.5047 289.619 70.4607 289.571 70.4267 289.519L70.2817 289.338C70.2017 289.237 70.1307 289.145 70.0667 289.049C70.0317 289.003 69.9957 288.959 69.9587 288.913C69.9467 288.896 69.9317 288.867 69.9167 288.85C69.9187 288.842 69.9187 288.842 69.9187 288.842L69.9107 288.833C69.8797 288.804 69.8607 288.769 69.8397 288.734C69.8197 288.697 69.7907 288.661 69.7687 288.618C69.7587 288.599 69.7477 288.59 69.7407 288.573C69.7097 288.512 69.6737 288.449 69.6487 288.39C69.5797 288.265 69.5207 288.143 69.4657 288.029C69.4347 287.959 69.4007 287.882 69.3667 287.811C69.2037 287.438 69.0847 287.045 69.0047 286.64C69.0017 286.614 68.9977 286.582 68.9907 286.556C68.9487 286.345 68.9157 286.136 68.8997 285.918C68.8567 285.492 68.8677 285.064 68.9187 284.623L74.8267 233.416C75.2287 229.906 78.4037 227.391 81.9227 227.796L116.468 231.776C119.298 232.102 121.471 234.209 122.011 236.856C122.145 237.498 122.173 238.179 122.095 238.863Z" fill="#82E394"/>
<path d="M130.579 239.841L124.671 291.048C124.267 294.558 121.092 297.082 117.569 296.675L109.094 295.7C111.872 296.019 114.441 294.509 115.594 292.124L117.607 292.355C119.122 292.53 120.477 291.448 120.649 289.949L126.397 240.126C126.572 238.627 125.499 237.256 123.983 237.081L122.01 236.855C121.47 234.207 119.297 232.101 116.467 231.775L124.943 232.752C125.384 232.803 125.813 232.894 126.217 233.025C126.576 233.147 126.93 233.295 127.257 233.473C127.297 233.487 127.326 233.514 127.374 233.536C127.507 233.608 127.629 233.689 127.751 233.769C128.12 234.011 128.459 234.288 128.769 234.612C129.021 234.857 129.245 235.13 129.441 235.433C130.325 236.673 130.767 238.219 130.579 239.841Z" fill="#6CD07F"/>
<path d="M126.398 240.126L120.65 289.949C120.478 291.448 119.123 292.53 117.608 292.355L115.595 292.124C115.898 291.497 116.102 290.802 116.187 290.07L122.096 238.863C122.174 238.179 122.146 237.498 122.013 236.856L123.986 237.082C125.5 237.256 126.573 238.627 126.398 240.126Z" fill="white"/>
<path d="M81.9932 281.144L82.8042 274.146L85.4422 274.45C85.9072 274.503 86.2592 274.567 86.4992 274.64C86.8372 274.739 87.1132 274.878 87.3262 275.066C87.5412 275.256 87.7022 275.502 87.8102 275.808C87.9182 276.112 87.9522 276.439 87.9122 276.786C87.8422 277.382 87.5962 277.863 87.1702 278.232C86.7422 278.6 86.0352 278.728 85.0432 278.612L83.2502 278.406L82.9212 281.252L81.9932 281.144ZM83.3442 277.579L85.1552 277.789C85.7512 277.857 86.1922 277.793 86.4682 277.6C86.7462 277.407 86.9072 277.106 86.9532 276.704C86.9882 276.41 86.9422 276.153 86.8182 275.927C86.6932 275.701 86.5142 275.542 86.2812 275.447C86.1302 275.388 85.8442 275.334 85.4242 275.285L83.6322 275.079L83.3442 277.579Z" fill="#F2F2F2" stroke="white" stroke-width="0.2295" stroke-miterlimit="10"/>
<path d="M87.0234 281.723L90.5214 275.034L91.5194 275.15L93.5784 282.477L92.5214 282.357L91.9494 280.142L89.0234 279.805L88.0084 281.835L87.0234 281.723ZM89.3774 279.081L91.7504 279.353L91.2424 277.332C91.0894 276.718 90.9774 276.213 90.9144 275.823C90.7734 276.261 90.5964 276.692 90.3824 277.116L89.3774 279.081Z" fill="#F2F2F2" stroke="white" stroke-width="0.2295" stroke-miterlimit="10"/>
<path d="M94.2609 280.277L95.1429 280.301C95.1439 280.656 95.2079 280.955 95.3339 281.196C95.4579 281.44 95.6729 281.647 95.9729 281.822C96.2759 281.999 96.6269 282.109 97.0239 282.155C97.3779 282.195 97.6949 282.177 97.9789 282.106C98.2599 282.031 98.4789 281.912 98.6329 281.742C98.7859 281.574 98.8759 281.382 98.8999 281.167C98.9269 280.948 98.8839 280.749 98.7749 280.569C98.6689 280.392 98.4729 280.229 98.1909 280.085C98.0129 279.989 97.6109 279.83 96.9849 279.6C96.3599 279.37 95.9259 279.172 95.6859 279.007C95.3699 278.793 95.1449 278.547 95.0109 278.268C94.8789 277.991 94.8299 277.691 94.8659 277.369C94.9049 277.017 95.0449 276.697 95.2819 276.414C95.5189 276.13 95.8379 275.93 96.2409 275.816C96.6449 275.701 97.0829 275.671 97.5539 275.725C98.0719 275.785 98.5189 275.921 98.8969 276.135C99.2739 276.347 99.5509 276.628 99.7259 276.976C99.9019 277.326 99.9739 277.706 99.9439 278.119L99.0489 278.084C99.0509 277.635 98.9279 277.283 98.6799 277.027C98.4309 276.769 98.0359 276.608 97.4989 276.547C96.9389 276.482 96.5179 276.538 96.2389 276.713C95.9579 276.89 95.8009 277.121 95.7679 277.41C95.7389 277.661 95.8069 277.879 95.9699 278.064C96.1289 278.247 96.5729 278.467 97.3069 278.723C98.0389 278.98 98.5409 279.188 98.8059 279.349C99.1909 279.584 99.4669 279.856 99.6239 280.168C99.7859 280.476 99.8459 280.819 99.8039 281.195C99.7609 281.566 99.6129 281.906 99.3599 282.21C99.1089 282.516 98.7739 282.737 98.3529 282.872C97.9309 283.01 97.4709 283.049 96.9709 282.993C96.3389 282.919 95.8169 282.766 95.4119 282.531C95.0049 282.298 94.6989 281.982 94.4989 281.581C94.2979 281.18 94.2189 280.748 94.2609 280.277Z" fill="#F2F2F2" stroke="white" stroke-width="0.2295" stroke-miterlimit="10"/>
<path d="M100.783 281.03L101.666 281.054C101.668 281.409 101.73 281.706 101.856 281.949C101.984 282.191 102.197 282.4 102.499 282.575C102.8 282.75 103.151 282.861 103.549 282.907C103.904 282.948 104.222 282.93 104.504 282.857C104.786 282.784 105.004 282.662 105.157 282.495C105.312 282.327 105.401 282.135 105.427 281.919C105.45 281.699 105.409 281.499 105.302 281.321C105.194 281.144 104.998 280.981 104.717 280.835C104.539 280.74 104.136 280.578 103.512 280.35C102.886 280.122 102.452 279.924 102.211 279.757C101.897 279.545 101.673 279.299 101.539 279.02C101.405 278.742 101.355 278.442 101.392 278.12C101.434 277.768 101.571 277.449 101.81 277.165C102.045 276.882 102.364 276.681 102.769 276.567C103.172 276.453 103.609 276.422 104.08 276.475C104.599 276.536 105.048 276.67 105.425 276.884C105.8 277.096 106.078 277.379 106.253 277.727C106.428 278.077 106.5 278.457 106.47 278.87L105.575 278.834C105.579 278.386 105.454 278.034 105.206 277.775C104.956 277.516 104.561 277.358 104.025 277.296C103.465 277.233 103.043 277.286 102.765 277.464C102.484 277.639 102.327 277.872 102.294 278.16C102.266 278.411 102.334 278.629 102.497 278.812C102.654 278.995 103.1 279.215 103.836 279.472C104.569 279.728 105.068 279.937 105.333 280.095C105.721 280.331 105.993 280.604 106.153 280.913C106.315 281.225 106.374 281.567 106.331 281.942C106.286 282.315 106.139 282.654 105.89 282.958C105.638 283.262 105.304 283.482 104.881 283.62C104.461 283.758 103.999 283.796 103.5 283.739C102.865 283.665 102.347 283.512 101.939 283.279C101.531 283.043 101.23 282.728 101.027 282.329C100.823 281.933 100.743 281.5 100.783 281.03Z" fill="#F2F2F2" stroke="white" stroke-width="0.2295" stroke-miterlimit="10"/>
<path d="M96.3237 269.008C95.7787 269.008 95.2236 268.977 94.6786 268.915C90.6816 268.453 87.0627 266.308 84.7507 263.027C82.7317 260.183 81.8407 256.709 82.2397 253.243C82.6507 249.675 84.3877 246.43 87.1297 244.105C90.0837 241.567 94.0207 240.359 97.9207 240.809C101.819 241.26 105.376 243.325 107.679 246.475C109.82 249.36 110.771 252.914 110.361 256.482C109.96 259.946 108.3 263.129 105.686 265.44C103.102 267.741 99.7757 269.008 96.3237 269.008ZM96.2816 241.534C93.1206 241.534 90.0586 242.669 87.6636 244.729C85.0786 246.92 83.4416 249.977 83.0556 253.336C82.6786 256.6 83.5186 259.874 85.4216 262.553C87.5996 265.646 91.0056 267.666 94.7726 268.1C98.5376 268.535 102.321 267.338 105.141 264.828C107.606 262.648 109.17 259.654 109.545 256.39C109.932 253.03 109.036 249.681 107.02 246.962C104.846 243.992 101.496 242.049 97.8256 241.625C97.3146 241.566 96.7936 241.534 96.2816 241.534Z" fill="#F2F2F2"/>
<path d="M98.4588 250.411C97.9168 250.411 97.3668 250.379 96.8248 250.317C92.9378 249.868 89.3788 247.807 87.0668 244.661L86.8398 244.354L87.1299 244.107C90.0869 241.565 94.0228 240.359 97.9218 240.809C101.82 241.26 105.377 243.325 107.68 246.475L107.906 246.782L107.616 247.029C105.061 249.211 101.809 250.411 98.4588 250.411ZM87.9588 244.48C90.1408 247.272 93.3838 249.094 96.9178 249.502C100.456 249.907 104.029 248.87 106.786 246.652C104.612 243.856 101.369 242.032 97.8259 241.625C94.2799 241.217 90.7058 242.258 87.9588 244.48Z" fill="#F2F2F2"/>
<path d="M96.3241 269.008C95.7791 269.008 95.224 268.977 94.679 268.915C90.682 268.453 87.0631 266.308 84.7511 263.027L84.54 262.729L84.813 262.484C87.802 259.815 91.818 258.538 95.823 259C99.823 259.462 103.441 261.611 105.751 264.898L105.959 265.196L105.688 265.44C103.102 267.741 99.7761 269.008 96.3241 269.008ZM85.6391 262.853C87.8231 265.775 91.132 267.681 94.774 268.1C98.416 268.519 102.077 267.414 104.863 265.07C102.685 262.144 99.376 260.236 95.73 259.816C92.089 259.395 88.4221 260.504 85.6391 262.853Z" fill="#F2F2F2"/>
<path d="M82.6876 252.888L82.5938 253.702L109.897 256.849L109.991 256.035L82.6876 252.888Z" fill="#F2F2F2"/>
<path d="M97.4688 241.159L94.3535 268.455L95.1712 268.548L98.2866 241.252L97.4688 241.159Z" fill="#F2F2F2"/>
<path d="M95.2167 268.945C95.0367 268.945 94.8597 268.934 94.6787 268.914C92.5127 268.664 90.6657 266.938 89.4787 264.052C88.3257 261.248 87.9277 257.66 88.3567 253.948C89.2447 246.249 93.5107 240.297 97.9207 240.809C100.088 241.059 101.938 242.786 103.122 245.672C104.273 248.476 104.672 252.065 104.242 255.777C103.393 263.161 99.4277 268.945 95.2167 268.945ZM97.3857 241.599C93.5867 241.599 89.9777 247.064 89.1727 254.04C88.7607 257.618 89.1387 261.062 90.2397 263.74C91.3057 266.338 92.9157 267.885 94.7737 268.1C98.7187 268.55 102.593 262.932 103.428 255.685C103.841 252.107 103.462 248.661 102.364 245.982C101.297 243.385 99.6847 241.838 97.8267 241.624C97.6807 241.607 97.5337 241.599 97.3857 241.599Z" fill="white"/>
<path d="M442.703 147.366C443.066 148.133 442.739 149.045 441.972 149.409L342.377 196.279C341.61 196.643 340.696 196.31 340.332 195.543L326.652 166.477L324.415 161.72C324.051 160.953 324.382 160.034 325.151 159.675L424.746 112.805C425.513 112.441 426.427 112.774 426.786 113.543L429.176 118.628L442.703 147.366Z" fill="#B3C9B1"/>
<path d="M410.38 159.776L401.411 164.009L402.281 165.851L411.249 161.618L410.38 159.776Z" fill="#423967"/>
<path d="M402.448 143.002L393.473 147.21L394.337 149.054L403.313 144.846L402.448 143.002Z" fill="#423967"/>
<path d="M409.542 157.993L400.569 162.209L401.004 163.134L409.977 158.918L409.542 157.993Z" fill="#423967"/>
<path d="M401.829 141.616L392.863 145.85L393.299 146.773L402.265 142.539L401.829 141.616Z" fill="#423967"/>
<path d="M408.995 156.807L400.008 160.986L400.308 161.631L409.295 157.452L408.995 156.807Z" fill="#423967"/>
<path d="M408.23 155.303L399.256 159.511L399.717 160.495L408.692 156.287L408.23 155.303Z" fill="#423967"/>
<path d="M407.728 154.187L398.768 158.431L399 158.922L407.961 154.679L407.728 154.187Z" fill="#423967"/>
<path d="M401.412 140.817L392.438 145.032L392.667 145.522L401.642 141.307L401.412 140.817Z" fill="#423967"/>
<path d="M406.931 152.505L397.961 156.727L398.482 157.834L407.452 153.613L406.931 152.505Z" fill="#423967"/>
<path d="M398.448 134.562L389.483 138.798L390.194 140.301L399.159 136.065L398.448 134.562Z" fill="#423967"/>
<path d="M403.542 145.311L404.065 146.417L395.092 150.636L394.575 149.531L403.542 145.311Z" fill="#423967"/>
<path d="M405.917 150.359L396.94 154.567L397.706 156.2L406.682 151.991L405.917 150.359Z" fill="#423967"/>
<path d="M405.185 148.888L396.214 153.108L396.648 154.031L405.619 149.81L405.185 148.888Z" fill="#423967"/>
<path d="M399.42 136.504L390.451 140.729L390.885 141.65L399.854 137.425L399.42 136.504Z" fill="#423967"/>
<path d="M400.852 139.573L391.882 143.798L392.316 144.72L401.286 140.495L400.852 139.573Z" fill="#423967"/>
<path d="M404.726 147.829L404.948 148.291L395.973 152.51L395.759 152.05L404.726 147.829Z" fill="#423967"/>
<path d="M400.057 137.908L400.277 138.369L391.303 142.589L391.088 142.126L400.057 137.908Z" fill="#423967"/>
<path d="M404.25 146.812L404.468 147.279L395.5 151.501L395.281 151.04L404.25 146.812Z" fill="#423967"/>
<path d="M400.476 138.769L391.506 142.994L391.724 143.456L400.694 139.232L400.476 138.769Z" fill="#423967"/>
<path d="M429.177 118.628L326.653 166.477L324.416 161.72C324.052 160.953 324.383 160.034 325.152 159.675L424.747 112.805C425.514 112.441 426.428 112.774 426.787 113.543L429.177 118.628Z" fill="#6CD07F"/>
<path d="M329.808 162.472L328.444 159.549L329.466 159.073C329.67 158.978 329.854 158.934 330.019 158.943C330.184 158.951 330.326 158.999 330.446 159.086C330.565 159.173 330.658 159.288 330.725 159.431C330.783 159.556 330.809 159.67 330.803 159.773C330.797 159.875 330.769 159.967 330.719 160.048C330.67 160.129 330.609 160.201 330.536 160.263L330.549 160.291C330.641 160.255 330.746 160.245 330.863 160.259C330.98 160.274 331.094 160.321 331.204 160.399C331.315 160.477 331.406 160.593 331.478 160.747C331.547 160.894 331.575 161.041 331.563 161.189C331.551 161.338 331.489 161.479 331.377 161.615C331.266 161.75 331.095 161.872 330.864 161.979L329.808 162.472ZM330.016 161.993L330.718 161.665C330.949 161.558 331.092 161.436 331.148 161.302C331.203 161.165 331.201 161.033 331.141 160.905C331.095 160.806 331.027 160.726 330.938 160.666C330.848 160.605 330.745 160.571 330.628 160.564C330.511 160.556 330.388 160.582 330.261 160.641L329.541 160.977L330.016 161.993ZM329.398 160.669L330.054 160.362C330.161 160.313 330.247 160.247 330.313 160.165C330.38 160.083 330.421 159.992 330.436 159.892C330.452 159.792 330.436 159.691 330.388 159.588C330.328 159.459 330.232 159.371 330.101 159.324C329.97 159.275 329.807 159.296 329.613 159.387L328.945 159.698L329.398 160.669ZM333.288 160.904C333.09 160.996 332.895 161.03 332.702 161.006C332.509 160.981 332.332 160.903 332.169 160.773C332.007 160.642 331.873 160.464 331.768 160.237C331.661 160.009 331.609 159.79 331.613 159.581C331.617 159.372 331.671 159.185 331.776 159.022C331.881 158.858 332.033 158.73 332.231 158.637C332.429 158.545 332.624 158.511 332.816 158.536C333.009 158.561 333.187 158.639 333.35 158.771C333.513 158.902 333.648 159.082 333.754 159.31C333.86 159.536 333.91 159.754 333.906 159.962C333.902 160.17 333.847 160.356 333.742 160.52C333.637 160.684 333.486 160.811 333.288 160.904ZM333.147 160.601C333.298 160.531 333.403 160.435 333.464 160.313C333.525 160.19 333.55 160.055 333.538 159.908C333.526 159.761 333.486 159.614 333.417 159.467C333.349 159.321 333.262 159.195 333.156 159.09C333.051 158.985 332.931 158.917 332.798 158.884C332.664 158.851 332.522 158.87 332.372 158.94C332.222 159.01 332.116 159.107 332.055 159.23C331.995 159.354 331.971 159.489 331.983 159.638C331.996 159.786 332.036 159.933 332.104 160.08C332.173 160.226 332.26 160.352 332.365 160.455C332.47 160.559 332.589 160.627 332.722 160.659C332.855 160.691 332.997 160.671 333.147 160.601ZM335.444 159.905C335.305 159.97 335.166 160.003 335.029 160.003C334.891 160.003 334.765 159.968 334.652 159.899C334.538 159.829 334.448 159.723 334.381 159.58C334.323 159.455 334.3 159.341 334.313 159.24C334.326 159.138 334.363 159.046 334.425 158.962C334.487 158.879 334.563 158.803 334.652 158.734C334.742 158.665 334.835 158.599 334.931 158.538C335.056 158.459 335.158 158.396 335.237 158.349C335.316 158.3 335.37 158.256 335.398 158.216C335.426 158.176 335.428 158.129 335.403 158.075L335.398 158.063C335.332 157.923 335.242 157.831 335.129 157.789C335.016 157.747 334.882 157.761 334.727 157.834C334.567 157.909 334.457 158.003 334.398 158.116C334.34 158.229 334.311 158.334 334.311 158.431L333.938 158.466C333.933 158.307 333.961 158.167 334.021 158.049C334.082 157.929 334.162 157.828 334.262 157.745C334.362 157.661 334.467 157.594 334.577 157.542C334.648 157.509 334.733 157.48 334.832 157.455C334.932 157.428 335.037 157.42 335.146 157.432C335.257 157.443 335.365 157.487 335.47 157.564C335.576 157.641 335.669 157.766 335.75 157.94L336.424 159.385L336.088 159.542L335.949 159.245L335.932 159.253C335.931 159.311 335.917 159.38 335.889 159.459C335.861 159.538 335.812 159.617 335.741 159.697C335.67 159.776 335.571 159.846 335.444 159.905ZM335.354 159.578C335.487 159.516 335.587 159.438 335.654 159.343C335.722 159.247 335.76 159.147 335.768 159.043C335.777 158.938 335.76 158.84 335.717 158.748L335.573 158.44C335.567 158.464 335.543 158.494 335.501 158.531C335.46 158.567 335.41 158.604 335.352 158.644C335.295 158.682 335.238 158.719 335.183 158.754C335.128 158.788 335.084 158.816 335.05 158.837C334.967 158.89 334.894 158.946 334.83 159.008C334.767 159.067 334.723 159.133 334.7 159.206C334.678 159.276 334.686 159.355 334.726 159.44C334.781 159.557 334.865 159.626 334.98 159.645C335.095 159.663 335.22 159.641 335.354 159.578ZM337.039 159.098L336.016 156.906L336.342 156.754L336.496 157.085L336.519 157.074C336.508 156.947 336.539 156.825 336.613 156.709C336.686 156.593 336.788 156.504 336.919 156.442C336.944 156.431 336.975 156.417 337.013 156.401C337.05 156.384 337.079 156.373 337.099 156.366L337.259 156.708C337.246 156.711 337.218 156.719 337.174 156.732C337.131 156.744 337.087 156.76 337.043 156.781C336.936 156.831 336.851 156.898 336.788 156.981C336.726 157.064 336.689 157.155 336.677 157.256C336.665 157.355 336.682 157.454 336.729 157.553L337.376 158.941L337.039 159.098ZM339.317 158.091C339.134 158.176 338.951 158.205 338.768 158.178C338.585 158.15 338.414 158.07 338.256 157.937C338.098 157.804 337.965 157.621 337.856 157.389C337.749 157.158 337.695 156.94 337.695 156.734C337.695 156.528 337.744 156.346 337.841 156.188C337.939 156.03 338.08 155.908 338.265 155.821C338.408 155.755 338.531 155.726 338.636 155.735C338.742 155.743 338.831 155.766 338.902 155.806C338.975 155.844 339.032 155.876 339.074 155.903L339.103 155.889L338.599 154.81L338.936 154.653L340.3 157.576L339.975 157.728L339.818 157.391L339.778 157.41C339.772 157.461 339.76 157.528 339.743 157.61C339.725 157.691 339.685 157.776 339.622 157.863C339.56 157.949 339.458 158.025 339.317 158.091ZM339.221 157.767C339.356 157.704 339.454 157.615 339.515 157.501C339.575 157.386 339.599 157.255 339.589 157.106C339.579 156.957 339.535 156.8 339.458 156.634C339.381 156.471 339.291 156.339 339.186 156.238C339.081 156.137 338.965 156.073 338.84 156.048C338.714 156.022 338.583 156.041 338.446 156.105C338.303 156.172 338.202 156.264 338.141 156.382C338.08 156.498 338.055 156.63 338.066 156.776C338.077 156.922 338.118 157.072 338.19 157.226C338.263 157.382 338.353 157.513 338.46 157.618C338.568 157.722 338.686 157.789 338.815 157.82C338.945 157.85 339.081 157.832 339.221 157.767ZM340.964 157.266L339.941 155.074L340.278 154.917L341.301 157.109L340.964 157.266ZM339.942 154.629C339.876 154.659 339.809 154.663 339.741 154.641C339.673 154.618 339.625 154.575 339.595 154.512C339.566 154.45 339.564 154.385 339.59 154.318C339.617 154.251 339.663 154.203 339.729 154.172C339.794 154.141 339.861 154.138 339.928 154.161C339.997 154.183 340.046 154.226 340.075 154.289C340.104 154.351 340.105 154.416 340.079 154.483C340.053 154.55 340.007 154.598 339.942 154.629ZM341.639 155.345L342.255 156.664L341.918 156.821L340.895 154.629L341.22 154.477L341.38 154.82L341.408 154.806C341.408 154.671 341.444 154.545 341.517 154.429C341.59 154.311 341.709 154.214 341.875 154.137C342.023 154.068 342.167 154.037 342.307 154.046C342.446 154.054 342.575 154.105 342.695 154.199C342.813 154.292 342.916 154.432 343.003 154.618L343.653 156.011L343.316 156.168L342.677 154.798C342.597 154.626 342.489 154.513 342.355 154.458C342.22 154.403 342.075 154.412 341.919 154.485C341.811 154.535 341.726 154.603 341.663 154.689C341.601 154.775 341.567 154.874 341.56 154.986C341.553 155.098 341.58 155.218 341.639 155.345ZM345.558 156.179C345.396 156.255 345.246 156.299 345.11 156.312C344.973 156.326 344.851 156.317 344.741 156.286C344.633 156.255 344.538 156.212 344.457 156.158L344.637 155.844C344.687 155.87 344.746 155.897 344.817 155.927C344.888 155.958 344.973 155.973 345.071 155.973C345.172 155.974 345.288 155.944 345.42 155.882C345.597 155.799 345.723 155.688 345.798 155.549C345.873 155.41 345.868 155.249 345.783 155.066L345.575 154.621L345.547 154.634C345.541 154.686 345.528 154.751 345.51 154.832C345.493 154.911 345.452 154.993 345.389 155.078C345.326 155.162 345.223 155.237 345.08 155.303C344.903 155.386 344.725 155.418 344.545 155.4C344.366 155.382 344.199 155.312 344.042 155.19C343.887 155.068 343.756 154.893 343.649 154.664C343.544 154.44 343.492 154.226 343.494 154.023C343.495 153.818 343.544 153.638 343.642 153.481C343.74 153.323 343.881 153.2 344.066 153.114C344.208 153.048 344.333 153.019 344.439 153.027C344.545 153.034 344.635 153.057 344.707 153.096C344.781 153.134 344.838 153.166 344.881 153.193L344.915 153.177L344.753 152.829L345.078 152.677L346.13 154.932C346.218 155.12 346.247 155.293 346.216 155.451C346.187 155.61 346.114 155.75 345.996 155.872C345.879 155.995 345.734 156.097 345.558 156.179ZM344.985 154.98C345.12 154.917 345.22 154.832 345.284 154.727C345.349 154.622 345.378 154.5 345.372 154.361C345.367 154.222 345.326 154.072 345.251 153.91C345.177 153.752 345.088 153.624 344.984 153.525C344.88 153.427 344.765 153.365 344.64 153.34C344.515 153.315 344.384 153.334 344.247 153.398C344.104 153.465 344.002 153.557 343.941 153.673C343.88 153.79 343.855 153.92 343.864 154.064C343.874 154.207 343.914 154.353 343.983 154.502C344.054 154.654 344.141 154.777 344.243 154.872C344.346 154.966 344.46 155.024 344.585 155.046C344.711 155.068 344.844 155.045 344.985 154.98ZM347.894 154.032L346.53 151.109L347.517 150.648C347.747 150.541 347.953 150.495 348.138 150.51C348.322 150.524 348.482 150.584 348.618 150.691C348.754 150.798 348.862 150.938 348.942 151.11C349.023 151.282 349.06 151.455 349.056 151.629C349.052 151.802 348.997 151.964 348.89 152.116C348.783 152.267 348.616 152.395 348.389 152.501L347.681 152.832L347.534 152.518L348.231 152.193C348.388 152.119 348.501 152.033 348.571 151.935C348.641 151.836 348.676 151.731 348.676 151.618C348.676 151.505 348.649 151.389 348.594 151.272C348.539 151.155 348.469 151.061 348.382 150.989C348.296 150.917 348.193 150.877 348.072 150.869C347.951 150.861 347.811 150.894 347.652 150.968L347.03 151.258L348.248 153.867L347.894 154.032ZM351.068 152.613C350.929 152.678 350.791 152.711 350.653 152.711C350.515 152.711 350.39 152.676 350.276 152.607C350.163 152.538 350.073 152.431 350.006 152.289C349.947 152.163 349.925 152.05 349.938 151.949C349.95 151.847 349.988 151.754 350.05 151.671C350.111 151.587 350.187 151.511 350.277 151.443C350.367 151.373 350.46 151.308 350.556 151.247C350.681 151.167 350.783 151.104 350.862 151.057C350.941 151.008 350.994 150.964 351.022 150.925C351.051 150.885 351.053 150.837 351.028 150.783L351.022 150.772C350.956 150.631 350.867 150.539 350.753 150.497C350.641 150.455 350.507 150.47 350.352 150.542C350.191 150.617 350.082 150.711 350.023 150.824C349.965 150.937 349.935 151.043 349.936 151.14L349.563 151.175C349.558 151.015 349.585 150.876 349.646 150.757C349.707 150.637 349.787 150.536 349.887 150.454C349.986 150.37 350.092 150.302 350.202 150.251C350.272 150.218 350.357 150.189 350.457 150.163C350.556 150.136 350.661 150.129 350.771 150.14C350.881 150.151 350.989 150.195 351.095 150.272C351.2 150.349 351.294 150.475 351.375 150.649L352.049 152.093L351.712 152.25L351.574 151.953L351.557 151.961C351.556 152.02 351.542 152.088 351.514 152.167C351.486 152.247 351.436 152.326 351.366 152.405C351.295 152.484 351.196 152.554 351.068 152.613ZM350.978 152.287C351.112 152.225 351.212 152.146 351.279 152.051C351.346 151.956 351.384 151.856 351.392 151.751C351.401 151.646 351.385 151.548 351.342 151.457L351.198 151.149C351.192 151.172 351.168 151.203 351.126 151.24C351.084 151.275 351.035 151.313 350.977 151.353C350.919 151.391 350.863 151.428 350.808 151.463C350.753 151.497 350.708 151.524 350.674 151.546C350.592 151.598 350.519 151.655 350.455 151.716C350.391 151.776 350.348 151.842 350.325 151.914C350.302 151.985 350.311 152.063 350.351 152.149C350.405 152.266 350.49 152.334 350.605 152.354C350.72 152.372 350.844 152.349 350.978 152.287ZM353.423 149.38L353.16 149.607C353.117 149.566 353.067 149.53 353.007 149.499C352.948 149.468 352.88 149.451 352.803 149.449C352.725 149.447 352.638 149.469 352.54 149.514C352.406 149.577 352.308 149.66 352.248 149.764C352.188 149.866 352.179 149.964 352.223 150.058C352.263 150.142 352.324 150.194 352.407 150.214C352.491 150.234 352.605 150.23 352.749 150.202L353.112 150.13C353.33 150.086 353.51 150.091 353.652 150.144C353.794 150.196 353.9 150.299 353.971 150.452C354.03 150.578 354.046 150.707 354.02 150.84C353.995 150.972 353.932 151.096 353.83 151.213C353.728 151.33 353.592 151.429 353.422 151.508C353.198 151.613 352.99 151.65 352.798 151.622C352.607 151.593 352.448 151.495 352.322 151.326L352.604 151.097C352.69 151.201 352.788 151.263 352.901 151.282C353.014 151.301 353.139 151.278 353.277 151.214C353.434 151.141 353.543 151.049 353.605 150.94C353.666 150.829 353.675 150.726 353.631 150.632C353.596 150.556 353.539 150.504 353.462 150.478C353.384 150.45 353.284 150.449 353.162 150.475L352.757 150.56C352.534 150.606 352.352 150.601 352.211 150.545C352.071 150.488 351.965 150.384 351.895 150.233C351.837 150.109 351.821 149.983 351.846 149.856C351.872 149.728 351.932 149.608 352.028 149.498C352.124 149.387 352.25 149.295 352.404 149.223C352.621 149.122 352.813 149.09 352.981 149.127C353.15 149.164 353.298 149.249 353.423 149.38ZM355.522 148.4L355.26 148.627C355.217 148.586 355.166 148.55 355.107 148.52C355.048 148.488 354.98 148.471 354.903 148.469C354.825 148.467 354.737 148.489 354.639 148.534C354.505 148.597 354.408 148.68 354.347 148.784C354.287 148.886 354.279 148.984 354.323 149.078C354.362 149.162 354.424 149.214 354.507 149.234C354.591 149.254 354.705 149.25 354.849 149.222L355.212 149.15C355.43 149.106 355.61 149.111 355.752 149.164C355.893 149.216 356 149.319 356.071 149.472C356.13 149.598 356.146 149.727 356.12 149.86C356.095 149.992 356.031 150.117 355.929 150.234C355.828 150.351 355.692 150.449 355.521 150.528C355.298 150.633 355.09 150.67 354.898 150.642C354.706 150.613 354.547 150.515 354.421 150.346L354.704 150.117C354.789 150.221 354.888 150.283 355 150.302C355.114 150.321 355.239 150.299 355.377 150.234C355.534 150.161 355.643 150.069 355.704 149.96C355.766 149.849 355.775 149.746 355.731 149.652C355.695 149.576 355.639 149.524 355.562 149.498C355.484 149.47 355.384 149.47 355.262 149.495L354.856 149.58C354.633 149.626 354.452 149.621 354.311 149.566C354.17 149.508 354.065 149.404 353.994 149.253C353.937 149.129 353.92 149.003 353.945 148.876C353.971 148.748 354.032 148.628 354.128 148.518C354.224 148.407 354.349 148.315 354.504 148.243C354.721 148.142 354.913 148.11 355.081 148.148C355.25 148.185 355.397 148.269 355.522 148.4Z" fill="white"/>
<path d="M358.974 160.643L335.383 171.653C334.575 172.03 333.615 171.681 333.238 170.873C332.861 170.065 333.21 169.105 334.018 168.728L357.609 157.718C358.416 157.341 359.377 157.69 359.754 158.498C360.131 159.306 359.782 160.266 358.974 160.643Z" fill="#3F964F"/>
<path d="M383.878 159.041L339.224 179.881C338.416 180.258 337.456 179.909 337.079 179.101C336.702 178.294 337.051 177.333 337.859 176.956L382.513 156.115C383.321 155.738 384.281 156.087 384.658 156.895C385.034 157.704 384.685 158.664 383.878 159.041Z" fill="#3F964F"/>
<path d="M389.033 170.087L344.379 190.927C343.572 191.304 342.611 190.955 342.234 190.147C341.857 189.34 342.206 188.379 343.014 188.002L387.668 167.161C388.476 166.784 389.436 167.133 389.813 167.941C390.19 168.75 389.841 169.71 389.033 170.087Z" fill="#3F964F"/>
<path d="M361.098 176.495L341.838 185.484C341.03 185.861 340.07 185.512 339.693 184.704C339.316 183.896 339.665 182.936 340.473 182.559L359.733 173.57C360.54 173.193 361.501 173.542 361.878 174.35C362.255 175.158 361.906 176.118 361.098 176.495Z" fill="#3F964F"/>
<path d="M436.141 141.471L416.881 150.46C416.074 150.837 415.113 150.488 414.736 149.68C414.359 148.873 414.708 147.912 415.516 147.535L434.776 138.546C435.583 138.169 436.544 138.518 436.92 139.326C437.297 140.134 436.948 141.094 436.141 141.471Z" fill="#3F964F"/>
<path d="M425.243 153.019L419.355 155.767C418.548 156.144 417.587 155.795 417.211 154.987C416.834 154.18 417.183 153.219 417.991 152.842L423.879 150.094C424.686 149.717 425.647 150.066 426.024 150.874C426.4 151.682 426.051 152.642 425.243 153.019Z" fill="#3F964F"/>
<path d="M438.404 146.876L429.905 150.842C429.098 151.219 428.137 150.87 427.76 150.062C427.383 149.255 427.732 148.294 428.54 147.917L437.039 143.951C437.846 143.574 438.807 143.923 439.183 144.731C439.561 145.539 439.212 146.499 438.404 146.876Z" fill="#3F964F"/>
<path d="M423.023 140.771L414.524 144.737C413.717 145.114 412.756 144.765 412.38 143.957C412.003 143.15 412.352 142.189 413.16 141.812L421.659 137.846C422.466 137.469 423.427 137.818 423.804 138.626C424.18 139.434 423.831 140.394 423.023 140.771Z" fill="#3F964F"/>
<path d="M377.936 168.635L366.866 173.802C366.059 174.179 365.098 173.83 364.721 173.022C364.344 172.214 364.693 171.254 365.501 170.877L376.571 165.71C377.379 165.333 378.339 165.682 378.716 166.49C379.093 167.298 378.744 168.258 377.936 168.635Z" fill="#3F964F"/>
<path d="M379.672 150.983L363.81 158.386C363.002 158.763 362.042 158.414 361.665 157.606C361.288 156.799 361.637 155.838 362.445 155.461L378.307 148.058C379.114 147.681 380.075 148.03 380.451 148.838C380.828 149.646 380.479 150.606 379.672 150.983Z" fill="#3F964F"/>
<path d="M400.763 123.98L400.295 124.198L400.733 125.136L401.201 124.918L400.763 123.98Z" fill="#423967"/>
<path d="M416.604 157.966L416.135 158.185L415.279 156.35L415.748 156.131L416.604 157.966ZM414.891 154.297L414.422 154.516L413.566 152.681L414.035 152.462L414.891 154.297ZM413.179 150.628L412.71 150.847L411.854 149.012L412.323 148.793L413.179 150.628ZM411.466 146.958L410.997 147.177L410.141 145.342L410.61 145.123L411.466 146.958ZM409.753 143.288L409.284 143.507L408.428 141.673L408.897 141.454L409.753 143.288ZM408.041 139.619L407.572 139.838L406.715 138.003L407.184 137.784L408.041 139.619ZM406.328 135.95L405.859 136.169L405.003 134.334L405.472 134.115L406.328 135.95ZM404.616 132.28L404.147 132.499L403.291 130.664L403.76 130.445L404.616 132.28ZM402.903 128.61L402.434 128.829L401.578 126.994L402.047 126.775L402.903 128.61Z" fill="#423967"/>
<path d="M417.472 159.776L417.004 159.995L417.442 160.933L417.91 160.714L417.472 159.776Z" fill="#423967"/>
<path d="M427.979 130.57L414.486 136.867C412.401 137.84 409.923 136.939 408.95 134.854C407.977 132.769 408.878 130.291 410.963 129.318L424.456 123.021C426.541 122.048 429.019 122.949 429.992 125.034C430.964 127.118 430.063 129.597 427.979 130.57Z" fill="#3F964F"/>
<path opacity="0.1" d="M431.811 132.453C432.217 133.03 431.992 133.883 431.309 134.362L342.57 196.286C341.887 196.765 341.005 196.68 340.599 196.104L325.287 174.213L322.783 170.63C322.377 170.053 322.604 169.194 323.289 168.718L412.028 106.794C412.711 106.315 413.593 106.399 413.995 106.979L416.671 110.809L431.811 132.453Z" fill="black"/>
<path d="M431.65 128.979C432.154 129.661 432.008 130.62 431.325 131.124L342.6 196.269C341.918 196.773 340.956 196.623 340.452 195.94L321.439 170.047L318.329 165.809C317.825 165.127 317.972 164.161 318.658 163.661L407.383 98.5162C408.065 98.0122 409.027 98.1622 409.527 98.8482L412.85 103.378L431.65 128.979Z" fill="#E1FFE8"/>
<path d="M402.275 147.369L394.288 153.247L395.495 154.888L403.483 149.01L402.275 147.369Z" fill="#5F5295"/>
<path d="M391.322 132.413L383.323 138.269L384.526 139.912L392.525 134.057L391.322 132.413Z" fill="#5F5295"/>
<path d="M401.104 145.807L393.109 151.669L393.713 152.492L401.708 146.63L401.104 145.807Z" fill="#5F5295"/>
<path d="M390.416 131.184L382.432 137.062L383.037 137.885L391.022 132.006L390.416 131.184Z" fill="#5F5295"/>
<path d="M400.366 144.776L392.35 150.604L392.768 151.18L400.784 145.351L400.366 144.776Z" fill="#5F5295"/>
<path d="M399.363 143.384L391.365 149.239L392.007 150.116L400.005 144.261L399.363 143.384Z" fill="#5F5295"/>
<path d="M398.653 142.382L390.676 148.27L390.999 148.707L398.976 142.819L398.653 142.382Z" fill="#5F5295"/>
<path d="M389.899 130.508L381.901 136.369L382.221 136.806L390.219 130.945L389.899 130.508Z" fill="#5F5295"/>
<path d="M397.539 140.91L389.548 146.778L390.272 147.765L398.263 141.897L397.539 140.91Z" fill="#5F5295"/>
<path d="M385.815 124.888L377.831 130.77L378.817 132.109L386.802 126.227L385.815 124.888Z" fill="#5F5295"/>
<path d="M392.825 134.492L393.551 135.477L385.556 141.342L384.836 140.357L392.825 134.492Z" fill="#5F5295"/>
<path d="M396.144 138.986L388.145 144.842L389.209 146.296L397.209 140.44L396.144 138.986Z" fill="#5F5295"/>
<path d="M395.16 137.653L387.168 143.521L387.772 144.343L395.764 138.475L395.16 137.653Z" fill="#5F5295"/>
<path d="M387.092 126.655L379.103 132.525L379.705 133.346L387.695 127.476L387.092 126.655Z" fill="#5F5295"/>
<path d="M389.083 129.364L381.093 135.234L381.696 136.056L389.687 130.185L389.083 129.364Z" fill="#5F5295"/>
<path d="M394.47 136.733L394.776 137.144L386.78 143.011L386.482 142.601L394.47 136.733Z" fill="#5F5295"/>
<path d="M387.98 127.896L388.285 128.306L380.29 134.173L379.99 133.76L387.98 127.896Z" fill="#5F5295"/>
<path d="M393.807 135.829L394.111 136.244L386.122 142.112L385.818 141.701L393.807 135.829Z" fill="#5F5295"/>
<path d="M388.559 128.65L380.568 134.521L380.871 134.932L388.861 129.062L388.559 128.65Z" fill="#5F5295"/>
<path d="M412.85 103.378L321.439 170.047L318.329 165.809C317.825 165.127 317.972 164.161 318.658 163.661L407.383 98.5162C408.065 98.0122 409.027 98.1622 409.527 98.8482L412.85 103.378Z" fill="#6CD07F"/>
<path d="M323.718 165.489L321.817 162.883L322.728 162.218C322.909 162.086 323.082 162.008 323.246 161.985C323.409 161.961 323.558 161.98 323.692 162.043C323.826 162.106 323.939 162.2 324.032 162.328C324.114 162.44 324.161 162.547 324.174 162.649C324.189 162.75 324.179 162.846 324.145 162.935C324.113 163.024 324.066 163.106 324.007 163.18L324.025 163.206C324.109 163.153 324.209 163.122 324.327 163.114C324.445 163.107 324.565 163.13 324.689 163.186C324.813 163.241 324.924 163.338 325.025 163.475C325.12 163.606 325.176 163.745 325.193 163.892C325.209 164.04 325.176 164.191 325.092 164.346C325.009 164.5 324.865 164.652 324.659 164.802L323.718 165.489ZM323.829 164.979L324.455 164.522C324.661 164.372 324.778 164.225 324.807 164.082C324.835 163.938 324.808 163.808 324.724 163.694C324.66 163.606 324.578 163.541 324.479 163.499C324.379 163.456 324.271 163.443 324.155 163.458C324.038 163.473 323.923 163.522 323.81 163.605L323.168 164.073L323.829 164.979ZM322.968 163.798L323.553 163.371C323.648 163.302 323.72 163.22 323.769 163.127C323.819 163.034 323.842 162.937 323.837 162.836C323.834 162.735 323.798 162.638 323.732 162.547C323.648 162.432 323.537 162.364 323.399 162.343C323.261 162.32 323.105 162.372 322.932 162.498L322.337 162.933L322.968 163.798ZM326.831 163.28C326.655 163.409 326.469 163.48 326.275 163.493C326.081 163.506 325.892 163.464 325.707 163.367C325.523 163.27 325.358 163.12 325.21 162.918C325.062 162.715 324.969 162.51 324.932 162.305C324.896 162.098 324.914 161.905 324.985 161.724C325.057 161.543 325.181 161.388 325.357 161.26C325.534 161.131 325.719 161.06 325.912 161.048C326.107 161.035 326.296 161.077 326.481 161.175C326.666 161.272 326.833 161.423 326.982 161.626C327.129 161.828 327.22 162.032 327.256 162.237C327.292 162.442 327.274 162.635 327.202 162.816C327.131 162.997 327.007 163.151 326.831 163.28ZM326.634 163.01C326.768 162.913 326.853 162.798 326.89 162.666C326.926 162.534 326.924 162.397 326.884 162.255C326.844 162.113 326.777 161.976 326.681 161.846C326.586 161.715 326.476 161.608 326.353 161.526C326.229 161.443 326.098 161.399 325.961 161.392C325.824 161.386 325.688 161.432 325.554 161.529C325.42 161.627 325.335 161.742 325.299 161.875C325.263 162.008 325.266 162.146 325.307 162.289C325.347 162.432 325.415 162.569 325.511 162.699C325.606 162.83 325.715 162.936 325.838 163.018C325.962 163.099 326.092 163.143 326.228 163.149C326.365 163.154 326.5 163.108 326.634 163.01ZM328.754 161.885C328.63 161.976 328.501 162.034 328.366 162.061C328.23 162.088 328.1 162.078 327.976 162.032C327.851 161.985 327.742 161.898 327.649 161.771C327.567 161.659 327.523 161.552 327.517 161.451C327.509 161.348 327.528 161.25 327.573 161.156C327.617 161.063 327.677 160.973 327.752 160.889C327.827 160.803 327.906 160.721 327.988 160.643C328.095 160.541 328.183 160.459 328.252 160.398C328.32 160.335 328.364 160.281 328.384 160.237C328.404 160.192 328.397 160.146 328.362 160.097L328.354 160.087C328.263 159.962 328.157 159.889 328.038 159.87C327.919 159.85 327.791 159.89 327.653 159.991C327.509 160.095 327.42 160.209 327.384 160.331C327.348 160.453 327.34 160.562 327.359 160.657L327 160.763C326.964 160.607 326.964 160.466 327.001 160.337C327.038 160.208 327.097 160.093 327.179 159.993C327.261 159.892 327.351 159.805 327.449 159.734C327.512 159.688 327.59 159.643 327.682 159.599C327.775 159.553 327.876 159.525 327.986 159.516C328.097 159.505 328.211 159.527 328.33 159.583C328.448 159.638 328.564 159.743 328.677 159.899L329.616 161.186L329.316 161.405L329.123 161.141L329.108 161.152C329.118 161.209 329.117 161.279 329.105 161.362C329.093 161.445 329.06 161.532 329.005 161.624C328.951 161.715 328.867 161.803 328.754 161.885ZM328.603 161.582C328.722 161.496 328.805 161.399 328.852 161.293C328.9 161.187 328.918 161.081 328.906 160.977C328.895 160.872 328.859 160.779 328.8 160.698L328.599 160.423C328.598 160.448 328.58 160.482 328.546 160.526C328.512 160.569 328.471 160.616 328.422 160.666C328.373 160.714 328.324 160.761 328.277 160.807C328.229 160.85 328.191 160.886 328.162 160.914C328.091 160.981 328.03 161.051 327.979 161.123C327.928 161.194 327.898 161.267 327.89 161.342C327.881 161.416 327.905 161.491 327.96 161.567C328.037 161.672 328.133 161.723 328.249 161.72C328.365 161.715 328.483 161.67 328.603 161.582ZM330.164 160.786L328.739 158.832L329.029 158.62L329.244 158.916L329.264 158.901C329.23 158.778 329.237 158.653 329.286 158.524C329.336 158.396 329.419 158.289 329.536 158.204C329.558 158.188 329.586 158.168 329.619 158.145C329.653 158.122 329.679 158.105 329.697 158.094L329.92 158.399C329.908 158.404 329.882 158.417 329.842 158.439C329.802 158.459 329.762 158.483 329.722 158.513C329.627 158.582 329.557 158.664 329.511 158.758C329.466 158.851 329.447 158.948 329.454 159.049C329.462 159.149 329.498 159.242 329.562 159.331L330.464 160.567L330.164 160.786ZM332.206 159.36C332.043 159.479 331.869 159.542 331.684 159.551C331.499 159.559 331.316 159.513 331.135 159.413C330.954 159.313 330.788 159.159 330.637 158.952C330.487 158.747 330.393 158.543 330.353 158.341C330.313 158.138 330.326 157.95 330.392 157.776C330.457 157.603 330.572 157.456 330.737 157.336C330.864 157.243 330.98 157.191 331.085 157.179C331.19 157.166 331.281 157.172 331.359 157.197C331.437 157.221 331.5 157.242 331.547 157.259L331.572 157.241L330.871 156.279L331.171 156.06L333.072 158.666L332.782 158.877L332.562 158.577L332.527 158.603C332.531 158.655 332.532 158.723 332.531 158.807C332.529 158.89 332.506 158.98 332.462 159.078C332.416 159.174 332.331 159.268 332.206 159.36ZM332.05 159.06C332.17 158.973 332.249 158.867 332.286 158.744C332.323 158.619 332.322 158.485 332.284 158.342C332.245 158.197 332.171 158.051 332.064 157.904C331.957 157.758 331.843 157.646 331.721 157.567C331.598 157.488 331.473 157.448 331.345 157.448C331.217 157.446 331.091 157.49 330.969 157.579C330.842 157.672 330.76 157.782 330.723 157.909C330.686 158.035 330.686 158.169 330.725 158.311C330.764 158.452 330.834 158.591 330.934 158.728C331.035 158.867 331.149 158.978 331.274 159.061C331.4 159.142 331.529 159.186 331.662 159.191C331.795 159.196 331.924 159.152 332.05 159.06ZM333.663 158.234L332.238 156.28L332.538 156.061L333.964 158.015L333.663 158.234ZM332.153 155.843C332.094 155.885 332.029 155.902 331.958 155.893C331.887 155.884 331.831 155.851 331.791 155.795C331.75 155.739 331.736 155.676 331.748 155.606C331.761 155.535 331.797 155.478 331.856 155.436C331.914 155.393 331.979 155.376 332.05 155.386C332.121 155.395 332.177 155.427 332.218 155.483C332.259 155.539 332.273 155.603 332.259 155.673C332.247 155.744 332.211 155.8 332.153 155.843ZM333.956 156.219L334.814 157.395L334.514 157.614L333.088 155.66L333.378 155.448L333.601 155.753L333.626 155.735C333.6 155.602 333.611 155.472 333.66 155.343C333.709 155.214 333.807 155.096 333.955 154.988C334.087 154.892 334.223 154.834 334.362 154.816C334.5 154.797 334.637 154.822 334.772 154.892C334.906 154.96 335.034 155.077 335.155 155.244L336.061 156.485L335.76 156.704L334.869 155.483C334.758 155.329 334.63 155.239 334.488 155.211C334.345 155.183 334.204 155.22 334.065 155.321C333.969 155.391 333.899 155.474 333.854 155.571C333.809 155.667 333.795 155.771 333.81 155.882C333.824 155.993 333.873 156.106 333.956 156.219ZM337.963 156.283C337.818 156.389 337.679 156.461 337.548 156.5C337.417 156.54 337.295 156.555 337.181 156.545C337.069 156.536 336.968 156.512 336.878 156.474L336.994 156.132C337.048 156.148 337.112 156.163 337.187 156.179C337.262 156.195 337.348 156.194 337.445 156.175C337.544 156.157 337.652 156.105 337.77 156.019C337.927 155.904 338.03 155.77 338.077 155.619C338.124 155.468 338.088 155.311 337.969 155.148L337.679 154.751L337.654 154.77C337.658 154.821 337.659 154.888 337.656 154.971C337.654 155.052 337.63 155.14 337.584 155.236C337.539 155.33 337.452 155.424 337.325 155.516C337.167 155.631 336.999 155.697 336.819 155.714C336.639 155.731 336.461 155.694 336.284 155.605C336.108 155.515 335.946 155.368 335.798 155.165C335.652 154.964 335.56 154.764 335.522 154.565C335.483 154.364 335.497 154.177 335.563 154.004C335.629 153.83 335.744 153.683 335.908 153.563C336.036 153.471 336.152 153.418 336.258 153.406C336.363 153.393 336.456 153.398 336.535 153.422C336.614 153.445 336.677 153.466 336.723 153.483L336.754 153.461L336.528 153.151L336.818 152.939L338.284 154.949C338.407 155.117 338.468 155.282 338.468 155.443C338.47 155.604 338.425 155.756 338.333 155.898C338.242 156.041 338.119 156.17 337.963 156.283ZM337.169 155.217C337.29 155.129 337.371 155.027 337.414 154.911C337.457 154.796 337.462 154.67 337.43 154.535C337.398 154.4 337.329 154.261 337.224 154.116C337.121 153.976 337.01 153.867 336.889 153.79C336.768 153.713 336.643 153.675 336.516 153.674C336.388 153.674 336.263 153.718 336.141 153.807C336.014 153.9 335.931 154.009 335.893 154.136C335.856 154.262 335.856 154.394 335.893 154.534C335.931 154.673 335.998 154.808 336.094 154.94C336.193 155.076 336.302 155.181 336.421 155.254C336.539 155.326 336.662 155.361 336.79 155.359C336.917 155.356 337.044 155.308 337.169 155.217ZM339.841 153.728L337.941 151.122L338.821 150.48C339.025 150.331 339.22 150.246 339.403 150.225C339.587 150.202 339.756 150.231 339.909 150.31C340.063 150.388 340.196 150.505 340.308 150.658C340.42 150.812 340.49 150.974 340.519 151.146C340.549 151.316 340.526 151.486 340.451 151.656C340.375 151.824 340.235 151.982 340.033 152.13L339.402 152.59L339.197 152.31L339.818 151.858C339.958 151.755 340.053 151.649 340.103 151.539C340.152 151.429 340.166 151.319 340.144 151.209C340.123 151.097 340.074 150.989 339.998 150.885C339.921 150.78 339.834 150.701 339.735 150.647C339.637 150.593 339.528 150.574 339.408 150.59C339.288 150.605 339.157 150.664 339.015 150.767L338.46 151.172L340.157 153.498L339.841 153.728ZM342.684 151.725C342.56 151.815 342.43 151.874 342.295 151.901C342.16 151.927 342.03 151.917 341.905 151.871C341.78 151.825 341.672 151.738 341.579 151.611C341.497 151.499 341.453 151.392 341.446 151.29C341.439 151.187 341.458 151.089 341.503 150.996C341.547 150.902 341.607 150.813 341.682 150.728C341.757 150.642 341.835 150.56 341.918 150.482C342.025 150.38 342.113 150.299 342.181 150.237C342.25 150.174 342.294 150.121 342.314 150.076C342.334 150.032 342.327 149.985 342.292 149.937L342.284 149.926C342.193 149.801 342.087 149.728 341.968 149.709C341.849 149.689 341.721 149.729 341.582 149.83C341.439 149.935 341.349 150.048 341.314 150.17C341.278 150.292 341.27 150.401 341.289 150.497L340.929 150.603C340.894 150.447 340.894 150.305 340.931 150.177C340.967 150.047 341.027 149.933 341.108 149.833C341.19 149.731 341.281 149.645 341.379 149.573C341.442 149.527 341.519 149.482 341.612 149.438C341.705 149.392 341.806 149.365 341.916 149.355C342.026 149.344 342.141 149.367 342.259 149.422C342.378 149.477 342.493 149.583 342.607 149.738L343.546 151.026L343.246 151.245L343.053 150.98L343.037 150.991C343.048 151.048 343.047 151.119 343.035 151.202C343.023 151.285 342.989 151.372 342.935 151.463C342.881 151.555 342.797 151.642 342.684 151.725ZM342.533 151.422C342.651 151.335 342.734 151.239 342.782 151.133C342.83 151.026 342.848 150.921 342.836 150.816C342.824 150.712 342.789 150.619 342.73 150.537L342.529 150.262C342.528 150.287 342.51 150.321 342.476 150.366C342.442 150.408 342.401 150.455 342.351 150.505C342.302 150.554 342.254 150.601 342.206 150.646C342.159 150.69 342.121 150.725 342.092 150.753C342.021 150.82 341.96 150.89 341.909 150.962C341.858 151.033 341.828 151.106 341.819 151.182C341.811 151.255 341.834 151.33 341.89 151.407C341.966 151.511 342.062 151.562 342.179 151.559C342.295 151.555 342.413 151.509 342.533 151.422ZM344.372 148.099L344.158 148.372C344.108 148.34 344.051 148.314 343.987 148.296C343.924 148.276 343.853 148.273 343.777 148.286C343.701 148.299 343.619 148.337 343.531 148.401C343.412 148.488 343.332 148.588 343.293 148.701C343.253 148.813 343.264 148.911 343.326 148.995C343.38 149.07 343.45 149.109 343.536 149.113C343.622 149.116 343.733 149.09 343.869 149.035L344.211 148.895C344.417 148.81 344.595 148.78 344.744 148.805C344.893 148.829 345.017 148.909 345.117 149.045C345.198 149.157 345.239 149.281 345.239 149.416C345.24 149.551 345.201 149.685 345.124 149.82C345.047 149.954 344.932 150.077 344.78 150.188C344.581 150.333 344.384 150.41 344.191 150.419C343.997 150.428 343.822 150.362 343.666 150.221L343.899 149.942C344.003 150.027 344.112 150.068 344.226 150.066C344.34 150.063 344.459 150.016 344.582 149.927C344.722 149.825 344.812 149.714 344.85 149.594C344.89 149.474 344.879 149.371 344.817 149.287C344.768 149.219 344.703 149.18 344.622 149.169C344.54 149.157 344.442 149.175 344.327 149.224L343.945 149.385C343.735 149.473 343.556 149.504 343.407 149.476C343.258 149.446 343.135 149.364 343.036 149.229C342.956 149.119 342.916 148.999 342.916 148.869C342.917 148.738 342.953 148.61 343.026 148.483C343.099 148.355 343.205 148.241 343.342 148.141C343.535 148 343.718 147.932 343.89 147.936C344.063 147.94 344.224 147.994 344.372 148.099ZM346.244 146.734L346.03 147.007C345.98 146.974 345.923 146.949 345.859 146.931C345.796 146.911 345.725 146.907 345.649 146.92C345.573 146.933 345.491 146.971 345.403 147.035C345.284 147.122 345.204 147.223 345.165 147.336C345.125 147.448 345.136 147.546 345.198 147.63C345.252 147.704 345.322 147.744 345.408 147.747C345.494 147.751 345.605 147.725 345.741 147.67L346.083 147.529C346.289 147.444 346.467 147.414 346.616 147.439C346.765 147.463 346.889 147.543 346.989 147.68C347.07 147.792 347.111 147.916 347.111 148.051C347.112 148.185 347.073 148.32 346.996 148.454C346.919 148.589 346.804 148.711 346.652 148.822C346.453 148.968 346.256 149.045 346.063 149.053C345.869 149.062 345.694 148.996 345.538 148.855L345.771 148.576C345.875 148.661 345.984 148.703 346.098 148.7C346.212 148.697 346.331 148.651 346.454 148.561C346.594 148.459 346.684 148.348 346.722 148.229C346.762 148.108 346.751 148.006 346.689 147.922C346.64 147.854 346.575 147.814 346.494 147.803C346.412 147.791 346.314 147.81 346.199 147.858L345.817 148.02C345.607 148.108 345.428 148.138 345.279 148.11C345.13 148.081 345.007 147.999 344.908 147.864C344.828 147.754 344.788 147.634 344.788 147.504C344.789 147.373 344.825 147.244 344.898 147.117C344.971 146.99 345.077 146.876 345.214 146.776C345.407 146.635 345.59 146.566 345.762 146.571C345.935 146.574 346.096 146.629 346.244 146.734Z" fill="white"/>
<path d="M352.035 158.107L331.001 173.448C330.281 173.973 329.272 173.815 328.747 173.095C328.222 172.375 328.38 171.366 329.1 170.841L350.134 155.5C350.854 154.975 351.863 155.133 352.388 155.853C352.913 156.572 352.755 157.582 352.035 158.107Z" fill="#82E394"/>
<path d="M376.167 151.746L336.353 180.784C335.633 181.309 334.624 181.151 334.099 180.431C333.574 179.711 333.732 178.702 334.452 178.177L374.266 149.139C374.986 148.614 375.995 148.772 376.521 149.492C377.045 150.212 376.887 151.221 376.167 151.746Z" fill="#82E394"/>
<path d="M383.35 161.596L343.536 190.634C342.816 191.159 341.807 191.001 341.281 190.281C340.756 189.561 340.914 188.552 341.634 188.027L381.448 158.989C382.168 158.464 383.177 158.622 383.703 159.342C384.228 160.062 384.07 161.071 383.35 161.596Z" fill="#82E394"/>
<path d="M357.169 173.255L339.997 185.779C339.277 186.304 338.268 186.146 337.743 185.426C337.218 184.706 337.376 183.697 338.096 183.171L355.269 170.647C355.989 170.122 356.998 170.28 357.523 171C358.047 171.72 357.889 172.73 357.169 173.255Z" fill="#82E394"/>
<path d="M424.077 124.457L406.905 136.981C406.185 137.506 405.176 137.348 404.651 136.628C404.126 135.908 404.284 134.899 405.004 134.374L422.176 121.85C422.896 121.325 423.905 121.483 424.431 122.203C424.955 122.922 424.797 123.932 424.077 124.457Z" fill="#82E394"/>
<path d="M415.604 137.883L410.355 141.712C409.635 142.237 408.626 142.079 408.101 141.359C407.576 140.639 407.734 139.63 408.454 139.105L413.703 135.276C414.423 134.751 415.432 134.909 415.958 135.629C416.482 136.348 416.324 137.358 415.604 137.883Z" fill="#82E394"/>
<path d="M427.338 129.325L419.76 134.852C419.04 135.377 418.031 135.219 417.505 134.499C416.98 133.779 417.138 132.77 417.858 132.245L425.436 126.718C426.156 126.193 427.165 126.351 427.691 127.071C428.216 127.79 428.058 128.799 427.338 129.325Z" fill="#82E394"/>
<path d="M411.07 126.29L403.492 131.817C402.772 132.342 401.763 132.184 401.238 131.464C400.713 130.744 400.871 129.735 401.591 129.209L409.169 123.682C409.889 123.157 410.898 123.315 411.423 124.035C411.948 124.756 411.79 125.765 411.07 126.29Z" fill="#82E394"/>
<path d="M372.182 162.306L362.311 169.505C361.591 170.03 360.582 169.872 360.057 169.152C359.532 168.432 359.69 167.423 360.41 166.898L370.28 159.699C371 159.174 372.009 159.332 372.535 160.052C373.06 160.772 372.902 161.781 372.182 162.306Z" fill="#82E394"/>
<path d="M370.49 144.648L356.347 154.963C355.627 155.488 354.618 155.33 354.093 154.61C353.568 153.89 353.726 152.881 354.446 152.356L368.588 142.041C369.308 141.516 370.317 141.674 370.843 142.394C371.368 143.113 371.21 144.122 370.49 144.648Z" fill="#82E394"/>
<path d="M385.983 114.121L385.565 114.426L386.175 115.262L386.593 114.957L385.983 114.121Z" fill="#5F5295"/>
<path d="M408.075 144.4L407.657 144.705L406.464 143.069L406.882 142.764L408.075 144.4ZM405.688 141.128L405.27 141.433L404.077 139.797L404.495 139.492L405.688 141.128ZM403.303 137.856L402.885 138.161L401.692 136.525L402.11 136.22L403.303 137.856ZM400.916 134.584L400.498 134.889L399.305 133.253L399.723 132.948L400.916 134.584ZM398.53 131.313L398.112 131.618L396.919 129.982L397.337 129.677L398.53 131.313ZM396.144 128.041L395.726 128.346L394.533 126.71L394.951 126.405L396.144 128.041ZM393.758 124.769L393.34 125.074L392.147 123.438L392.565 123.133L393.758 124.769ZM391.371 121.497L390.953 121.802L389.76 120.166L390.178 119.861L391.371 121.497ZM388.985 118.226L388.567 118.531L387.374 116.895L387.792 116.59L388.985 118.226Z" fill="#5F5295"/>
<path d="M409.261 146.038L408.844 146.343L409.454 147.179L409.871 146.874L409.261 146.038Z" fill="#5F5295"/>
<path d="M413.971 115.327L401.941 124.101C400.082 125.457 397.477 125.049 396.121 123.19C394.765 121.331 395.173 118.725 397.032 117.37L409.063 108.596C410.922 107.24 413.527 107.648 414.883 109.507C416.237 111.366 415.83 113.972 413.971 115.327Z" fill="#82E394"/>
<path d="M288.235 211.977L287.395 324.183L252.284 312.195L217.044 323.646C217.037 323.621 217.024 323.595 217.021 323.572C217.012 323.595 217.003 323.62 216.998 323.646L181.926 311.667L146.645 323.13L147.482 210.923L182.764 199.448L217.858 211.45L253.121 199.969L288.235 211.977Z" fill="#E3EEF1"/>
<path d="M282.472 218.968L281.77 313.303L252.352 303.264L217.086 314.715L181.992 302.74L152.434 312.338L153.137 218.003L182.696 208.381L217.792 220.387L253.056 208.907L282.472 218.968Z" fill="#EAE6FF"/>
<path d="M282.474 218.952L281.774 313.286L252.356 303.249L242.708 306.377C241.989 301.551 241.097 296.315 245.378 293.903C248.817 292.217 257.82 292.285 261.682 291.457C271.985 288.957 277.982 289.434 275.484 279.557C273.817 272.693 276.975 251.718 265.809 255.493C256.355 258.848 266.553 270.495 254.952 274.691C248.076 277.214 242.954 274.175 239.059 279.715C237.325 282.273 240.314 283.584 236.011 286.123C232.138 288.662 231.284 287.798 228.303 285.208C226.176 283.476 220.696 271.438 220.72 268.44C221.209 259.873 231.033 263.8 235.348 259.977C238.797 257.433 238.859 249.289 239.743 245.439C241.073 239.88 245.818 235.627 247.14 230.498C248.353 225.357 244.077 218.518 242.686 212.267L253.062 208.891L282.474 218.952Z" fill="#82E394"/>
<path d="M235.661 217.986C234.342 222.688 230.058 222.227 228.753 224.789C226.142 230.339 233.792 238.537 229.895 244.081C225.131 250.9 211.481 242.23 205.854 250.331C204.117 253.315 206.653 258.048 205.344 261.036C203.608 264.025 199.754 263.999 196.742 265.683C194.155 267.38 192.856 269.515 190.706 270.78C189.837 271.634 185.124 272.025 184.26 272.881C179.511 277.557 184.189 282.305 175.168 285.238C171.303 286.492 169.572 288.624 167.041 283.459C166.198 281.312 165.788 279.168 167.09 277.035C168.821 274.477 173.101 275.367 174.828 273.665C176.991 271.11 176.145 269.389 176.173 265.532C176.631 261.677 176.694 253.11 178.005 249.691C180.184 244.565 185.329 244.602 184.097 237.31C182.441 229.581 171.741 227.789 169.652 220.49C169.03 216.782 171.276 213.428 174.482 211.037L182.704 208.365L217.792 220.369L235.832 214.495C235.962 215.775 235.917 217.001 235.661 217.986Z" fill="#82E394"/>
<path d="M208.507 297.055C200.148 297.415 200.073 279.898 211.181 281.897C215.781 286.764 216.923 296.845 208.507 297.055Z" fill="#82E394"/>
<path d="M199.088 308.56L182.001 302.72L159.259 310.111C162.418 305.514 164.723 303.944 171.606 303.639C175.462 303.668 176.737 304.959 180.181 302.842C182.335 301.146 181.932 297.715 184.508 296.877C192.428 293.483 196.008 300.989 199.088 308.56Z" fill="#82E394"/>
<path opacity="0.5" d="M182.774 199.445L181.935 311.666L146.65 323.128L147.49 210.922L182.774 199.445Z" fill="#AAB6D0"/>
<path opacity="0.5" d="M253.13 199.972L252.293 312.196L217.052 323.646C217.043 323.621 217.033 323.6 217.026 323.575L217.865 211.453L253.13 199.972Z" fill="#AAB6D0"/>
<path d="M376.374 236.66V264.54C376.374 265.343 377.025 265.994 377.828 265.994H382.058C382.861 265.994 383.512 265.343 383.512 264.54V236.66C383.512 235.857 382.861 235.206 382.058 235.206H377.828C377.025 235.207 376.374 235.858 376.374 236.66Z" fill="#656890"/>
<path d="M376.663 274.673H371.121C369.31 274.673 367.841 273.204 367.841 271.393V229.809C367.841 227.998 369.309 226.529 371.121 226.529H376.663C378.474 226.529 379.943 227.997 379.943 229.809V271.393C379.943 273.204 378.474 274.673 376.663 274.673Z" fill="#EAE6FF"/>
<path d="M349.567 114.385H295.02C290.113 114.385 286.061 118.392 286.061 123.347V207.668C286.061 212.627 290.113 216.676 295.02 216.676H349.818C352.917 216.594 355.593 214.94 357.127 212.502C358.037 211.097 358.53 209.447 358.53 207.668V123.347C358.53 118.392 354.528 114.385 349.567 114.385ZM351.638 207.668C351.638 208.827 350.729 209.736 349.567 209.736H295.02C293.911 209.736 292.994 208.827 292.994 207.668V123.347C292.994 122.235 293.911 121.326 295.02 121.326H349.567C350.729 121.326 351.638 122.235 351.638 123.347V207.668Z" fill="#7860DB"/>
<path d="M300.929 123.304H343.71C344.942 123.304 345.94 122.305 345.94 121.074V114.584C345.94 113.352 344.941 112.354 343.71 112.354H300.929C299.697 112.354 298.699 113.353 298.699 114.584V121.074C298.698 122.305 299.697 123.304 300.929 123.304Z" fill="#656890"/>
<path d="M292.995 175.054H286.061V181.987H292.995V175.054Z" fill="#EAEAEA"/>
<path d="M358.571 175.054H351.637V181.987H358.571V175.054Z" fill="#EAEAEA"/>
<path d="M354.873 322.482C354.873 324.866 356.798 326.805 359.193 326.805C361.571 326.805 363.513 324.866 363.513 322.482V312.69C363.513 310.298 361.571 308.363 359.193 308.363C356.798 308.363 354.873 310.298 354.873 312.69V322.482Z" fill="#EAE6FF"/>
<path d="M359.193 308.366C358.235 308.366 357.356 308.679 356.641 309.204C356.981 309.118 357.335 309.068 357.702 309.068C360.08 309.068 362.022 311.003 362.022 313.395V323.188C362.022 324.619 361.319 325.887 360.244 326.674C362.116 326.202 363.512 324.506 363.512 322.486V312.694C363.513 310.301 361.571 308.366 359.193 308.366Z" fill="#DAD7F7"/>
<path d="M283.141 322.482C283.141 324.866 285.066 326.805 287.461 326.805C289.839 326.805 291.781 324.866 291.781 322.482V312.69C291.781 310.298 289.839 308.363 287.461 308.363C285.066 308.363 283.141 310.298 283.141 312.69V322.482Z" fill="#EAE6FF"/>
<path d="M287.46 308.366C286.502 308.366 285.623 308.679 284.908 309.204C285.248 309.118 285.602 309.068 285.969 309.068C288.347 309.068 290.289 311.003 290.289 313.395V323.188C290.289 324.619 289.586 325.887 288.511 326.674C290.383 326.202 291.779 324.506 291.779 322.486V312.694C291.78 310.301 289.838 308.366 287.46 308.366Z" fill="#DAD7F7"/>
<path d="M270.453 307.213C270.453 312.94 275.092 317.587 280.82 317.587H363.8C369.529 317.587 374.17 312.941 374.17 307.213V188.661C374.17 182.941 369.529 178.299 363.8 178.299H280.82C275.092 178.299 270.453 182.942 270.453 188.661V307.213Z" fill="#7860DB"/>
<path d="M363.8 178.299H280.82C276.263 178.299 272.404 181.242 271.013 185.323C271.634 185.207 272.272 185.139 272.927 185.139H355.907C361.636 185.139 366.277 189.782 366.277 195.501V314.053C366.277 315.227 366.073 316.35 365.714 317.403C370.527 316.503 374.17 312.286 374.17 307.213V188.661C374.17 182.942 369.529 178.299 363.8 178.299Z" fill="#6958CC"/>
<path d="M356.736 293.616H287.854C285.874 293.616 284.268 292.011 284.268 290.03V201.966C284.268 199.986 285.873 198.38 287.854 198.38H356.736C358.716 198.38 360.322 199.985 360.322 201.966V290.03C360.322 292.01 358.717 293.616 356.736 293.616Z" fill="#6454C6"/>
<path d="M311.233 220.159H333.951C335.17 220.159 336.158 219.171 336.158 217.952V213.715C336.158 212.496 335.17 211.508 333.951 211.508H311.233C310.014 211.508 309.026 212.496 309.026 213.715V217.952C309.025 219.171 310.013 220.159 311.233 220.159Z" fill="#F2F2F2"/>
<path d="M138.378 116.129L120.539 116.855L112.416 88.708L117.76 88.725L138.378 116.129Z" fill="#D9D0FD"/>
<path d="M190.7 124.517C191.411 122.361 188.411 120.037 184.206 118.072C180.068 116.134 174.742 114.558 170.626 113.878C168.943 113.602 167.464 113.466 166.334 113.519L80.7591 117.476C74.1071 117.792 69.0751 121.671 70.1461 124.71L70.5971 125.851C72.4891 127.349 75.0881 128.749 81.5071 128.849L175.543 130.373C180.589 130.124 187.509 128.249 190.646 125.212C190.697 124.986 190.711 124.752 190.7 124.517ZM182.221 121.325C180.343 122.463 178.828 123.328 174.436 122.685C170.795 122.167 168.759 119.042 169.344 117.216C169.595 116.416 169.968 115.865 170.42 115.501C171.865 114.299 174.244 115.039 176.95 115.872C179.128 116.532 182.217 117.445 183.303 118.661C184.009 119.415 183.904 120.31 182.221 121.325Z" fill="#B4A5F5"/>
<path d="M174.347 132.877L82.4627 131.088C75.6837 130.965 73.2497 129.371 71.3517 127.783L70.5967 125.853C72.4887 127.351 75.0877 128.751 81.5067 128.851L175.543 130.375C180.589 130.126 187.509 128.251 190.646 125.214C189.903 129.709 180.664 132.579 174.347 132.877Z" fill="#DDD6FE"/>
<path d="M176.95 115.873C173.391 114.788 170.431 113.846 169.344 117.216C169.218 117.602 169.218 118.044 169.318 118.509C169.687 120.242 171.571 122.276 174.437 122.686C178.829 123.328 180.344 122.464 182.222 121.326C182.524 121.134 182.779 120.948 182.976 120.77C185.679 118.449 180.267 116.881 176.95 115.873Z" fill="#765EDA"/>
<path d="M118.459 129.565L105.619 174.237L112.843 173.918L145.175 128.384L118.459 129.565Z" fill="#D9D0FD"/>
<path d="M92.661 123.419L74.628 124.25L71.856 111.427L71.422 109.416L70 102.855L78.495 102.464L82.006 107.66L83.271 109.53L92.661 123.419Z" fill="#D9D0FD"/>
<path d="M163.905 124.346C163.273 125.507 161.827 125.937 160.676 125.312C159.523 124.684 159.102 123.237 159.734 122.076C160.367 120.915 161.81 120.483 162.964 121.111C164.116 121.738 164.538 123.186 163.905 124.346Z" fill="#765EDA"/>
<path d="M156.948 124.599C156.316 125.76 154.869 126.191 153.72 125.565C152.566 124.936 152.144 123.49 152.777 122.33C153.409 121.169 154.855 120.737 156.008 121.365C157.16 121.99 157.582 123.439 156.948 124.599Z" fill="#765EDA"/>
<path d="M149.969 124.838C149.336 125.998 147.891 126.429 146.739 125.803C145.586 125.175 145.162 123.728 145.796 122.567C146.428 121.406 147.874 120.975 149.026 121.602C150.178 122.229 150.601 123.677 149.969 124.838Z" fill="#765EDA"/>
<path d="M142.786 125.016C142.154 126.177 140.708 126.608 139.558 125.982C138.405 125.355 137.981 123.906 138.616 122.745C139.247 121.585 140.693 121.153 141.846 121.781C142.995 122.406 143.42 123.855 142.786 125.016Z" fill="#765EDA"/>
<path d="M134.876 125.283C134.244 126.444 132.798 126.876 131.647 126.25C130.492 125.622 130.072 124.174 130.706 123.013C131.336 121.852 132.782 121.421 133.935 122.048C135.089 122.676 135.509 124.122 134.876 125.283Z" fill="#765EDA"/>
<path d="M127.176 125.496C126.545 126.657 125.097 127.087 123.947 126.461C122.792 125.833 122.373 124.386 123.006 123.226C123.637 122.064 125.083 121.633 126.235 122.261C127.386 122.887 127.808 124.334 127.176 125.496Z" fill="#765EDA"/>
<path d="M119.494 125.755C118.862 126.915 117.416 127.346 116.266 126.72C115.111 126.092 114.69 124.645 115.322 123.484C115.956 122.324 117.401 121.893 118.552 122.521C119.705 123.147 120.127 124.594 119.494 125.755Z" fill="#765EDA"/>
<path d="M112.01 125.979C111.376 127.14 109.931 127.571 108.777 126.945C107.625 126.317 107.202 124.869 107.836 123.708C108.467 122.547 109.912 122.116 111.067 122.744C112.218 123.371 112.64 124.817 112.01 125.979Z" fill="#765EDA"/>
<path d="M83.2709 109.53L71.8559 111.427L71.4219 109.416L82.0059 107.66L83.2709 109.53Z" fill="#765EDA"/>
<path opacity="0.9" d="M348 82.5162C348 86.6362 351.332 89.9672 355.456 89.9672C355.891 89.9672 356.325 89.9282 356.733 89.8612L396.277 89.7432C399.903 89.7432 402.825 86.8072 402.825 83.1872C402.825 79.5662 399.903 76.6442 396.277 76.6442C396.161 69.6392 390.43 63.9912 383.394 63.9912C379.1 63.9912 375.307 66.0842 372.974 69.3102C371.525 68.5462 369.867 68.1252 368.127 68.1252C363.399 68.1252 359.393 71.2322 358.062 75.5242C357.245 75.2212 356.376 75.0502 355.455 75.0502C351.331 75.0512 348 78.3952 348 82.5162Z" fill="#EAE6FF"/>
<path opacity="0.9" d="M161.014 81.2555C161.014 85.3755 164.345 88.7065 168.47 88.7065C168.905 88.7065 169.339 88.6675 169.747 88.6005L209.291 88.4825C212.916 88.4825 215.838 85.5465 215.838 81.9265C215.838 78.3055 212.916 75.3835 209.291 75.3835C209.174 68.3785 203.443 62.7305 196.408 62.7305C192.114 62.7305 188.322 64.8235 185.988 68.0495C184.539 67.2855 182.881 66.8645 181.141 66.8645C176.413 66.8645 172.407 69.9715 171.076 74.2635C170.259 73.9605 169.39 73.7895 168.469 73.7895C164.345 73.7905 161.014 77.1345 161.014 81.2555Z" fill="#EAE6FF"/>
<path opacity="0.9" d="M19.1084 160.318C19.1084 164.438 22.4404 167.769 26.5644 167.769C26.9994 167.769 27.4334 167.73 27.8414 167.663L67.3854 167.545C71.0114 167.545 73.9334 164.609 73.9334 160.989C73.9334 157.368 71.0114 154.446 67.3854 154.446C67.2694 147.441 61.5384 141.793 54.5024 141.793C50.2084 141.793 46.4154 143.886 44.0824 147.112C42.6334 146.348 40.9754 145.927 39.2354 145.927C34.5074 145.927 30.5014 149.034 29.1704 153.326C28.3534 153.023 27.4844 152.852 26.5634 152.852C22.4394 152.853 19.1084 156.197 19.1084 160.318Z" fill="#EAE6FF"/>
<path d="M66.21 296.37V333.06C66.21 338.142 70.3329 342.261 75.4149 342.261H140.824C145.906 342.261 150.026 338.143 150.026 333.06V296.37C150.026 291.291 145.906 287.172 140.824 287.172H75.4149C70.3329 287.172 66.21 291.29 66.21 296.37Z" fill="#D9D0FD"/>
<path d="M150.027 301.03H66.21V331.577H150.027V301.03Z" fill="#B4A5F5"/>
<path opacity="0.15" d="M87.2441 320.013C87.2441 331.531 96.5861 340.876 108.118 340.876C119.643 340.876 128.992 331.531 128.992 320.013C128.992 308.487 119.643 299.15 108.118 299.15C96.5871 299.149 87.2441 308.487 87.2441 320.013ZM92.8341 320.013C92.8341 311.589 99.6921 304.737 108.119 304.737C116.547 304.737 123.398 311.588 123.398 320.013C123.398 328.431 116.547 335.283 108.119 335.283C99.6911 335.282 92.8341 328.431 92.8341 320.013Z" fill="#4D4D4D"/>
<path d="M87.248 316.306C87.248 327.825 96.59 337.17 108.122 337.17C119.647 337.17 128.996 327.825 128.996 316.306C128.996 304.78 119.647 295.444 108.122 295.444C96.59 295.444 87.248 304.78 87.248 316.306ZM92.8371 316.306C92.8371 307.883 99.695 301.029 108.122 301.029C116.55 301.029 123.4 307.882 123.4 316.306C123.4 324.723 116.55 331.576 108.122 331.576C99.695 331.577 92.8371 324.724 92.8371 316.306Z" fill="#7860DB"/>
<path d="M92.8369 316.306C92.8369 324.723 99.6949 331.576 108.122 331.576C116.55 331.576 123.4 324.723 123.4 316.306C123.4 307.883 116.55 301.029 108.122 301.029C99.6949 301.03 92.8369 307.883 92.8369 316.306Z" fill="#D9D0FD"/>
<path d="M121.489 291.609C121.489 293.06 122.436 294.237 123.604 294.237H139.202C140.371 294.237 141.32 293.06 141.32 291.609V282.738C141.32 281.288 140.371 280.109 139.202 280.109H123.604C122.435 280.109 121.489 281.288 121.489 282.738V291.609Z" fill="#7860DB"/>
<path d="M139.139 282.82H123.67V291.525H139.139V282.82Z" fill="#D9D0FD"/>
<path opacity="0.89" d="M97.1104 311.924C97.1104 314.963 99.5734 317.426 102.613 317.426C105.654 317.426 108.119 314.963 108.119 311.924C108.119 308.887 105.654 306.421 102.613 306.421C99.5734 306.422 97.1104 308.888 97.1104 311.924Z" fill="white"/>
<path opacity="0.89" d="M100.378 321.044C100.378 322.279 101.379 323.28 102.614 323.28C103.85 323.28 104.851 322.279 104.851 321.044C104.851 319.81 103.849 318.808 102.614 318.808C101.379 318.809 100.378 319.811 100.378 321.044Z" fill="white"/>
<path d="M80.9443 286.463V287.172H93.9293V286.463C93.9293 285.009 92.7503 283.834 91.2983 283.834H83.5733C82.1233 283.834 80.9443 285.009 80.9443 286.463Z" fill="#7860DB"/>
<path d="M239.377 185.714L238.79 176.734L239.227 176.705L239.815 185.686L239.377 185.714Z" fill="#D9D0FD"/>
<path d="M236.958 185.732L235.636 176.75L236.07 176.687L237.392 185.667L236.958 185.732Z" fill="#D9D0FD"/>
<path d="M244.268 185.714L243.828 185.686L244.417 176.705L244.855 176.734L244.268 185.714Z" fill="#D9D0FD"/>
<path d="M246.692 185.732L246.253 185.667L247.574 176.687L248.01 176.75L246.692 185.732Z" fill="#D9D0FD"/>
<path d="M250.653 139.88C250.619 146.563 248.489 157.031 246.646 165.499H237.112C235.269 157.032 233.139 146.563 233.105 139.88C233.073 133.57 234.781 124.608 241.88 124.884C248.975 124.607 250.686 133.57 250.653 139.88Z" fill="#D9D0FD"/>
<path d="M233.106 139.88C233.139 146.563 235.27 157.031 237.113 165.499H231.3C231.208 165.337 231.115 165.176 231.022 165.016C231.022 165.014 231.022 165.014 231.022 165.014C230.862 164.74 230.702 164.466 230.545 164.188C230.545 164.185 230.545 164.185 230.545 164.185C230.263 163.692 229.978 163.194 229.696 162.688C229.584 162.487 229.471 162.282 229.358 162.08C229.132 161.672 228.909 161.261 228.688 160.844C228.52 160.534 228.355 160.221 228.193 159.908C228.082 159.699 227.974 159.487 227.867 159.278C227.811 159.173 227.758 159.067 227.705 158.96C227.544 158.644 227.386 158.323 227.229 158.005C226.97 157.473 226.717 156.938 226.471 156.401C226.372 156.187 226.275 155.97 226.18 155.755C226.085 155.539 225.989 155.323 225.897 155.108C225.796 154.873 225.696 154.634 225.6 154.398C225.455 154.042 225.313 153.688 225.178 153.331C225.131 153.212 225.086 153.094 225.045 152.972C224.954 152.737 224.868 152.5 224.786 152.262C224.702 152.023 224.623 151.784 224.541 151.552C223.505 148.401 222.941 145.277 223.218 142.361C223.313 141.371 223.463 140.405 223.666 139.472C223.747 139.1 223.838 138.73 223.936 138.368C223.981 138.185 224.037 138.004 224.09 137.827V137.824C224.175 137.537 224.264 137.256 224.359 136.977C225.312 134.181 226.785 131.744 228.681 129.804C228.776 129.707 228.872 129.61 228.97 129.516C229.878 128.628 230.878 127.85 231.964 127.202C232.108 127.111 232.257 127.026 232.407 126.945C232.487 126.896 232.571 126.849 232.658 126.807C232.814 126.72 232.973 126.639 233.133 126.56C233.66 126.299 234.203 126.068 234.768 125.862C234.994 125.781 235.223 125.704 235.457 125.631C235.518 125.611 235.579 125.592 235.642 125.574C236.012 125.461 236.386 125.362 236.768 125.276C237.179 125.184 237.602 125.104 238.028 125.041C238.598 124.955 239.179 124.898 239.771 124.869C239.948 124.859 240.128 124.855 240.306 124.851C240.357 124.851 240.41 124.847 240.459 124.847H240.521C240.571 124.844 240.62 124.844 240.671 124.844C240.84 124.843 241.013 124.848 241.182 124.853C241.418 124.858 241.648 124.869 241.879 124.884C234.783 124.607 233.074 133.57 233.106 139.88Z" fill="#7860DB"/>
<path d="M252.458 165.498H246.647C248.49 157.031 250.62 146.562 250.654 139.879C250.687 133.569 248.976 124.607 241.881 124.883C242.287 124.857 242.69 124.846 243.085 124.846H243.161C243.285 124.846 243.411 124.848 243.54 124.852C243.588 124.852 243.64 124.854 243.692 124.857C243.928 124.866 244.162 124.878 244.391 124.893C244.542 124.906 244.687 124.915 244.834 124.933C244.93 124.94 245.028 124.952 245.125 124.964C246.766 125.148 248.304 125.553 249.733 126.154C249.84 126.201 249.949 126.245 250.054 126.293C250.462 126.475 250.859 126.673 251.245 126.886C251.358 126.947 251.469 127.011 251.573 127.072C252.629 127.684 253.605 128.41 254.494 129.238C254.594 129.33 254.69 129.422 254.787 129.517C254.886 129.611 254.982 129.708 255.075 129.805C255.267 129.999 255.454 130.2 255.634 130.402C255.815 130.606 255.989 130.816 256.165 131.029C256.337 131.241 256.502 131.461 256.667 131.683C256.797 131.863 256.931 132.049 257.056 132.236C257.867 133.426 258.551 134.74 259.099 136.152C259.255 136.556 259.403 136.971 259.538 137.392C259.818 138.269 260.045 139.178 260.227 140.116C260.27 140.368 260.314 140.621 260.355 140.878C260.431 141.363 260.493 141.859 260.543 142.361C261.248 149.741 256.549 158.454 252.458 165.498Z" fill="#7860DB"/>
<path d="M256.109 165.498C252.64 169.426 249.409 173.089 248.403 176.865H235.354C234.35 173.089 231.118 169.426 227.646 165.498H256.109Z" fill="#7860DB"/>
<path d="M266.413 148.409C265.32 155.068 260.522 160.5 256.109 165.498H252.457C256.548 158.454 261.247 149.74 260.539 142.361C260.489 141.86 260.427 141.364 260.351 140.878C260.311 140.621 260.266 140.368 260.223 140.116C260.041 139.178 259.814 138.269 259.534 137.392C259.4 136.971 259.251 136.555 259.095 136.152C258.547 134.74 257.863 133.426 257.052 132.236C256.927 132.049 256.794 131.863 256.663 131.683C256.498 131.461 256.332 131.242 256.161 131.029C255.985 130.816 255.811 130.606 255.63 130.402C255.45 130.2 255.264 129.999 255.071 129.805C254.978 129.708 254.882 129.611 254.783 129.517C254.686 129.422 254.591 129.33 254.49 129.238C253.601 128.41 252.626 127.684 251.569 127.072C251.465 127.01 251.354 126.947 251.241 126.886C250.855 126.673 250.457 126.475 250.05 126.293C249.945 126.246 249.836 126.201 249.729 126.154C248.3 125.553 246.761 125.148 245.121 124.964C245.024 124.952 244.926 124.94 244.83 124.933C244.683 124.915 244.538 124.906 244.387 124.893C244.158 124.879 243.924 124.866 243.688 124.857C243.636 124.854 243.584 124.852 243.536 124.852C243.407 124.847 243.281 124.846 243.157 124.846C257.491 124.771 268.322 136.768 266.413 148.409Z" fill="#D9D0FD"/>
<path d="M240.672 124.846C240.553 124.846 240.429 124.848 240.307 124.85C240.129 124.854 239.95 124.857 239.772 124.868C239.179 124.899 238.599 124.958 238.029 125.04C237.603 125.103 237.18 125.183 236.769 125.275C236.387 125.36 236.012 125.46 235.643 125.573C235.58 125.59 235.519 125.61 235.458 125.63C235.224 125.703 234.995 125.78 234.769 125.861C234.205 126.067 233.661 126.298 233.134 126.559C232.974 126.638 232.815 126.72 232.659 126.806C232.572 126.848 232.488 126.896 232.408 126.944C232.258 127.025 232.11 127.11 231.965 127.201C230.879 127.85 229.879 128.628 228.971 129.515C228.873 129.608 228.777 129.704 228.682 129.803C226.787 131.743 225.313 134.18 224.36 136.976C224.263 137.255 224.172 137.536 224.091 137.823V137.826C224.038 138.003 223.982 138.184 223.937 138.367C223.836 138.728 223.748 139.099 223.667 139.471C223.462 140.404 223.313 141.369 223.219 142.36C222.942 145.276 223.503 148.4 224.542 151.551C224.623 151.784 224.703 152.022 224.787 152.261C224.868 152.499 224.955 152.736 225.046 152.971C225.086 153.092 225.131 153.211 225.179 153.33C225.314 153.687 225.456 154.041 225.601 154.397C225.697 154.633 225.797 154.872 225.898 155.107C225.99 155.322 226.083 155.538 226.181 155.754C226.276 155.969 226.373 156.186 226.472 156.4C226.715 156.937 226.968 157.472 227.23 158.004C227.387 158.322 227.545 158.643 227.706 158.959C227.758 159.065 227.811 159.171 227.868 159.277C227.975 159.486 228.083 159.698 228.194 159.907C228.356 160.22 228.521 160.533 228.689 160.843C228.91 161.26 229.132 161.671 229.359 162.079C229.473 162.281 229.585 162.486 229.697 162.687C229.979 163.193 230.264 163.691 230.546 164.184C230.546 164.184 230.546 164.184 230.546 164.187C230.703 164.464 230.863 164.739 231.023 165.013C231.023 165.013 231.023 165.013 231.023 165.015C231.116 165.175 231.207 165.336 231.301 165.498H227.648C223.233 160.5 218.437 155.068 217.345 148.409C215.443 136.807 226.199 124.846 240.462 124.846H240.672Z" fill="#D9D0FD"/>
<g opacity="0.1">
<path d="M243.66 124.857C243.619 124.855 243.578 124.853 243.54 124.853C243.412 124.848 243.285 124.847 243.161 124.847H243.086C242.691 124.847 242.288 124.859 241.882 124.884C241.651 124.869 241.42 124.858 241.185 124.853C241.016 124.848 240.843 124.844 240.673 124.844C240.621 124.844 240.573 124.844 240.523 124.847H240.461C238.104 124.847 235.846 125.18 233.721 125.777C234.814 125.63 235.931 125.545 237.073 125.545H237.135C237.185 125.542 237.234 125.542 237.285 125.542C237.454 125.541 237.627 125.546 237.797 125.551C238.032 125.556 238.263 125.567 238.494 125.582C238.9 125.556 239.303 125.545 239.698 125.545H239.773C239.897 125.545 240.023 125.547 240.152 125.551C240.19 125.551 240.231 125.553 240.272 125.555C254.353 125.758 264.913 137.603 263.026 149.107C261.933 155.766 257.135 161.199 252.722 166.196C249.467 169.882 246.422 173.333 245.227 176.864H248.403C249.41 173.088 252.64 169.425 256.109 165.497C260.522 160.499 265.32 155.067 266.413 148.408C268.301 136.904 257.741 125.059 243.66 124.857Z" fill="black"/>
</g>
<path d="M246.935 185.479V192.008C246.935 193.102 246.051 193.986 244.958 193.986H238.799C237.705 193.986 236.822 193.101 236.822 192.008V185.479H246.935Z" fill="#7860DB"/>
<path d="M246.229 185.479V191.338C246.229 192.432 245.345 193.316 244.252 193.316H238.093C237.74 193.316 237.413 193.215 237.126 193.053C237.475 193.612 238.091 193.987 238.799 193.987H244.958C246.052 193.987 246.935 193.102 246.935 192.009V185.48H246.229V185.479Z" fill="#6250C9"/>
<path d="M176.273 11.2614V7.72727H194.841V11.2614H187.648V31H183.466V11.2614H176.273ZM202.636 7.72727V31H198.42V7.72727H202.636ZM207.202 7.72727H212.361L219.27 24.5909H219.543L226.452 7.72727H231.611V31H227.565V15.0114H227.349L220.918 30.9318H217.895L211.463 14.9773H211.247V31H207.202V7.72727ZM236.202 31V7.72727H251.338V11.2614H240.418V17.5795H250.554V21.1136H240.418V27.4659H251.429V31H236.202ZM262.554 11.2614V7.72727H281.122V11.2614H273.929V31H269.747V11.2614H262.554ZM304.466 19.3636C304.466 21.8712 303.996 24.0189 303.057 25.8068C302.125 27.5871 300.852 28.9508 299.239 29.8977C297.633 30.8447 295.811 31.3182 293.773 31.3182C291.735 31.3182 289.909 30.8447 288.295 29.8977C286.689 28.9432 285.417 27.5758 284.477 25.7955C283.545 24.0076 283.08 21.8636 283.08 19.3636C283.08 16.8561 283.545 14.7121 284.477 12.9318C285.417 11.1439 286.689 9.77651 288.295 8.82954C289.909 7.88257 291.735 7.40909 293.773 7.40909C295.811 7.40909 297.633 7.88257 299.239 8.82954C300.852 9.77651 302.125 11.1439 303.057 12.9318C303.996 14.7121 304.466 16.8561 304.466 19.3636ZM300.227 19.3636C300.227 17.5985 299.951 16.1098 299.398 14.8977C298.852 13.678 298.095 12.7576 297.125 12.1364C296.155 11.5076 295.038 11.1932 293.773 11.1932C292.508 11.1932 291.39 11.5076 290.42 12.1364C289.451 12.7576 288.689 13.678 288.136 14.8977C287.591 16.1098 287.318 17.5985 287.318 19.3636C287.318 21.1288 287.591 22.6212 288.136 23.8409C288.689 25.053 289.451 25.9735 290.42 26.6023C291.39 27.2235 292.508 27.5341 293.773 27.5341C295.038 27.5341 296.155 27.2235 297.125 26.6023C298.095 25.9735 298.852 25.053 299.398 23.8409C299.951 22.6212 300.227 21.1288 300.227 19.3636Z" fill="#7860DB"/>
<path d="M136.953 51.9727V45H169.805V51.9727H157.559V85H149.199V51.9727H136.953ZM175.215 85V45H190.996C194.017 45 196.595 45.5404 198.73 46.6211C200.879 47.6888 202.513 49.2057 203.633 51.1719C204.766 53.125 205.332 55.4232 205.332 58.0664C205.332 60.7227 204.759 63.0078 203.613 64.9219C202.467 66.8229 200.807 68.2812 198.633 69.2969C196.471 70.3125 193.854 70.8203 190.781 70.8203H180.215V64.0234H189.414C191.029 64.0234 192.37 63.8021 193.438 63.3594C194.505 62.9167 195.299 62.2526 195.82 61.3672C196.354 60.4818 196.621 59.3815 196.621 58.0664C196.621 56.7383 196.354 55.6185 195.82 54.707C195.299 53.7956 194.499 53.1055 193.418 52.6367C192.35 52.1549 191.003 51.9141 189.375 51.9141H183.672V85H175.215ZM196.816 66.7969L206.758 85H197.422L187.695 66.7969H196.816ZM218.203 85H209.141L222.949 45H233.848L247.637 85H238.574L228.555 54.1406H228.242L218.203 85ZM217.637 69.2773H239.043V75.8789H217.637V69.2773ZM254.683 45L264.351 75.3906H264.722L274.409 45H283.784L269.995 85H259.097L245.288 45H254.683ZM288.599 85V45H315.552V51.9727H297.056V61.5039H314.165V68.4766H297.056V78.0273H315.63V85H288.599ZM322.275 85V45H330.732V78.0273H347.881V85H322.275Z" fill="#7860DB"/>
<path d="M172.68 238.31C172.28 238.26 171.87 238.22 171.46 238.2C170.9 238.16 170.34 238.15 169.78 238.15C151.81 238.15 137.23 252.72 137.23 270.71C137.23 280.43 140.46 285.43 147.46 296.16L167.07 327.66L169.78 332.02L172.66 327.21L192.36 295.92C198.14 287.03 202.34 280.43 202.34 270.71C202.34 253.69 189.3 239.74 172.68 238.31ZM172.88 287.2C171.88 287.37 170.84 287.46 169.79 287.46C159.56 287.46 151.26 279.16 151.26 268.93C151.26 258.7 159.56 250.41 169.79 250.41C170.7 250.41 171.59 250.48 172.46 250.6C181.42 251.9 188.31 259.61 188.31 268.93C188.31 278.11 181.63 285.73 172.88 287.2Z" fill="#82E394"/>
<path d="M202.34 270.71C202.34 280.43 198.14 287.03 192.36 295.92L172.66 327.21L169.78 332.02L167.07 327.66C170.55 314.88 172.24 300.77 172.88 287.2C181.63 285.73 188.31 278.11 188.31 268.93C188.31 259.61 181.42 251.9 172.46 250.6C172.16 245.99 171.81 241.8 171.46 238.2C171.87 238.22 172.28 238.26 172.68 238.31C189.3 239.74 202.34 253.69 202.34 270.71Z" fill="#6CD07F"/>
<path d="M224.351 261.898C203.642 261.898 186.86 278.677 186.86 299.364C186.86 320.056 203.642 336.83 224.351 336.83C245.057 336.83 261.837 320.056 261.837 299.364C261.838 278.677 245.057 261.898 224.351 261.898ZM224.351 326.959C209.099 326.959 196.738 314.609 196.738 299.364C196.738 284.124 209.099 271.775 224.351 271.775C239.597 271.775 251.958 284.123 251.958 299.364C251.958 314.609 239.597 326.959 224.351 326.959Z" fill="#7860DB"/>
<path d="M251.958 299.364C251.958 314.609 239.597 326.959 224.351 326.959C209.099 326.959 196.738 314.609 196.738 299.364C196.738 284.124 209.099 271.775 224.351 271.775C239.597 271.775 251.958 284.124 251.958 299.364Z" fill="#F2F2F2"/>
<path d="M219.659 297.58L230.09 302.078L217.165 317.681L219.659 297.58Z" fill="#82E394"/>
<path d="M219.659 297.581L230.09 302.079L232.584 281.977L219.659 297.581Z" fill="#6CD07F"/>
<path d="M226.333 274.373V282.21H224.549L223.49 278.649V282.21H221.785V274.373H223.49L224.633 277.903V274.373H226.333Z" fill="#6454C6"/>
<path d="M208.235 296.663L207.322 304.495H204.782C204.546 303.294 204.342 301.922 204.166 300.389C204.082 301.046 203.896 302.415 203.595 304.495H201.065L200.153 296.663H202.136L202.35 299.397L202.558 302.037C202.632 300.672 202.823 298.88 203.121 296.663H205.241C205.264 296.892 205.341 297.753 205.46 299.247L205.686 302.228C205.803 300.331 205.991 298.476 206.254 296.662H208.235V296.663Z" fill="#6454C6"/>
<path d="M243.187 296.663H246.585V298.231H245.224V299.715H246.497V301.207H245.224V302.928H246.717V304.494H243.187V296.663Z" fill="#6454C6"/>
<path d="M226.788 319.358H224.896V318.777C224.896 318.507 224.873 318.334 224.822 318.258C224.773 318.186 224.694 318.148 224.583 318.148C224.456 318.148 224.366 318.197 224.303 318.298C224.24 318.397 224.209 318.548 224.209 318.754C224.209 319.014 224.242 319.21 224.314 319.345C224.38 319.475 224.574 319.633 224.889 319.821C225.797 320.36 226.366 320.801 226.604 321.147C226.839 321.491 226.958 322.05 226.958 322.816C226.958 323.374 226.895 323.788 226.76 324.048C226.63 324.313 226.378 324.537 226.002 324.713C225.63 324.894 225.193 324.983 224.696 324.983C224.151 324.983 223.688 324.881 223.301 324.673C222.912 324.466 222.659 324.205 222.543 323.886C222.421 323.568 222.36 323.112 222.36 322.524V322.013H224.257V322.967C224.257 323.26 224.28 323.446 224.334 323.534C224.392 323.615 224.482 323.656 224.617 323.656C224.755 323.656 224.853 323.605 224.92 323.498C224.984 323.391 225.017 323.233 225.017 323.024C225.017 322.563 224.958 322.263 224.831 322.121C224.701 321.978 224.381 321.741 223.877 321.408C223.371 321.072 223.035 320.83 222.869 320.677C222.704 320.529 222.569 320.318 222.459 320.05C222.35 319.783 222.299 319.442 222.299 319.025C222.299 318.424 222.375 317.986 222.526 317.707C222.681 317.432 222.926 317.213 223.274 317.055C223.613 316.9 224.025 316.821 224.513 316.821C225.043 316.821 225.488 316.908 225.862 317.078C226.234 317.251 226.486 317.465 226.605 317.725C226.725 317.985 226.786 318.428 226.786 319.048V319.358H226.788Z" fill="#6454C6"/>
<path opacity="0.1" d="M230.526 262.413C234.802 277.982 242.928 314.346 232.699 335.887C249.383 332.093 261.837 317.188 261.837 299.365C261.838 280.779 248.292 265.357 230.526 262.413Z" fill="black"/>
</svg>
